<svg width="343" height="66" viewBox="0 0 343 66" fill="none" xmlns="http://www.w3.org/2000/svg">
<path d="M340.823 58.1738C340.823 61.6377 336.46 64.4436 331.064 64.4436H11.6764C6.28239 64.4436 1.90405 61.6377 1.90405 58.1738V8.17437C1.90405 4.71208 6.28239 1.89641 11.6764 1.89641H331.061C336.46 1.89641 340.821 4.71208 340.821 8.17437L340.823 58.1738Z" fill="black"/>
<path d="M330.034 1.97203C335.911 1.97203 340.693 5.03312 340.693 8.795V57.545C340.693 61.3069 335.911 64.368 330.034 64.368H12.6936C6.81646 64.368 2.03415 61.3069 2.03415 57.545V8.795C2.03415 5.03312 6.81646 1.97203 12.6936 1.97203H330.034ZM330.034 0.669998H12.6936C5.71529 0.669998 0 4.32828 0 8.795V57.545C0 62.0117 5.71529 65.67 12.6936 65.67H330.034C337.012 65.67 342.727 62.0117 342.727 57.545V8.795C342.727 4.32828 337.012 0.669998 330.034 0.669998Z" fill="#A6A6A6"/>
<path d="M76.4866 32.819C76.413 27.5816 83.1863 25.0336 83.496 24.915C79.66 21.3351 73.7143 20.846 71.625 20.807C66.6313 20.4706 61.7874 22.7196 59.2436 22.7196C56.649 22.7196 52.7318 20.8395 48.5099 20.8947C43.077 20.9484 37.9945 22.9617 35.207 26.0882C29.4543 32.4631 33.7447 41.8312 39.2563 46.9841C42.0133 49.5077 45.235 52.3255 49.4518 52.2264C53.5772 52.1175 55.1182 50.5429 60.0966 50.5429C65.0294 50.5429 66.4764 52.2264 70.777 52.163C75.2045 52.1175 77.9921 49.628 80.6526 47.0816C83.8387 44.1891 85.1183 41.3405 85.169 41.1942C85.0649 41.1715 76.5704 39.0964 76.4866 32.819Z" fill="white"/>
<path d="M68.3627 17.4172C70.5815 15.6411 72.0997 13.2247 71.6783 10.7726C68.4668 10.8636 64.4505 12.1945 62.1378 13.9316C60.0915 15.4624 58.2637 17.9714 58.7359 20.3309C62.3434 20.5031 66.0474 19.1657 68.3627 17.4172Z" fill="white"/>
<path d="M124.524 16.9346C124.524 18.8472 123.628 20.287 121.838 21.2539C120.181 22.146 117.825 22.5929 114.773 22.5929C113.26 22.5929 111.965 22.5506 110.881 22.4661V12.0157C112.295 11.8695 113.818 11.7947 115.464 11.7947C118.37 11.7947 120.561 12.1994 122.039 13.0086C123.694 13.9235 124.524 15.2316 124.524 16.9346ZM121.719 16.9817C121.719 15.7419 121.206 14.7912 120.181 14.1282C119.155 13.4669 117.657 13.1354 115.684 13.1354C114.847 13.1354 114.133 13.1711 113.542 13.2459V21.1905C113.869 21.223 114.468 21.2376 115.339 21.2376C117.375 21.2376 118.947 20.8752 120.054 20.1505C121.16 19.4257 121.719 18.3695 121.719 16.9817Z" fill="white"/>
<path d="M139.399 18.6051C139.399 19.7832 138.873 20.7485 137.822 21.5057C136.72 22.2841 135.26 22.6725 133.438 22.6725C131.681 22.6725 130.282 22.3004 129.239 21.5529C128.198 20.807 127.677 19.8661 127.677 18.7319C127.677 17.5456 128.213 16.5722 129.289 15.8166C130.366 15.061 131.813 14.6824 133.636 14.6824C135.393 14.6824 136.804 15.0545 137.873 15.8004C138.888 16.5251 139.399 17.4611 139.399 18.6051ZM136.639 18.6604C136.639 17.9535 136.4 17.3474 135.926 16.842C135.367 16.231 134.573 15.9255 133.539 15.9255C132.47 15.9255 131.658 16.231 131.1 16.842C130.622 17.3474 130.386 17.9632 130.386 18.6912C130.386 19.3981 130.625 20.0042 131.1 20.5096C131.676 21.1206 132.478 21.4261 133.514 21.4261C134.529 21.4261 135.326 21.1157 135.9 20.4934C136.393 19.9782 136.639 19.3672 136.639 18.6604Z" fill="white"/>
<path d="M159.343 14.8384L155.598 22.4986H153.161L151.61 19.1722C151.216 18.3419 150.896 17.5164 150.648 16.6974H150.599C150.368 17.5391 150.049 18.363 149.637 19.1722L147.99 22.4986H145.525L142.003 14.8384H144.738L146.091 18.48C146.418 19.3412 146.687 20.1619 146.903 20.9386H146.951C147.149 20.2984 147.477 19.4826 147.939 18.4962L149.637 14.84H151.805L153.433 18.4182C153.826 19.2909 154.146 20.131 154.392 20.9402H154.466C154.646 20.1521 154.918 19.312 155.278 18.4182L156.73 14.84H159.343V14.8384Z" fill="white"/>
<path d="M173.136 22.4986H170.475V18.1111C170.475 16.7591 169.673 16.0831 168.063 16.0831C167.274 16.0831 166.637 16.2684 166.141 16.6405C165.652 17.0126 165.403 17.4514 165.403 17.9535V22.497H162.742V17.0273C162.742 16.3545 162.709 15.6249 162.646 14.8351H164.984L165.108 16.0328H165.182C165.492 15.6606 165.954 15.3535 166.56 15.1081C167.281 14.8221 168.089 14.6775 168.972 14.6775C170.089 14.6775 171.018 14.9083 171.757 15.3714C172.676 15.9385 173.136 16.7851 173.136 17.9096V22.4986Z" fill="white"/>
<path d="M180.473 22.4986H177.815V11.3235H180.473V22.4986Z" fill="white"/>
<path d="M196.137 18.6051C196.137 19.7832 195.611 20.7485 194.56 21.5057C193.458 22.2841 191.996 22.6725 190.176 22.6725C188.416 22.6725 187.017 22.3004 185.977 21.5529C184.936 20.807 184.415 19.8661 184.415 18.7319C184.415 17.5456 184.951 16.5722 186.027 15.8166C187.104 15.061 188.551 14.6824 190.371 14.6824C192.13 14.6824 193.539 15.0545 194.611 15.8004C195.626 16.5251 196.137 17.4611 196.137 18.6051ZM193.374 18.6604C193.374 17.9535 193.136 17.3474 192.661 16.842C192.105 16.231 191.308 15.9255 190.277 15.9255C189.206 15.9255 188.393 16.231 187.837 16.842C187.36 17.3474 187.124 17.9632 187.124 18.6912C187.124 19.3981 187.363 20.0042 187.837 20.5096C188.414 21.1206 189.216 21.4261 190.252 21.4261C191.267 21.4261 192.062 21.1157 192.636 20.4934C193.131 19.9782 193.374 19.3672 193.374 18.6604Z" fill="white"/>
<path d="M209.013 22.4986H206.624L206.426 21.6162H206.352C205.535 22.3199 204.37 22.6725 202.856 22.6725C201.727 22.6725 200.813 22.4401 200.125 21.9786C199.5 21.5594 199.188 21.0377 199.188 20.4186C199.188 19.4826 199.797 18.7692 201.024 18.2752C202.247 17.7812 203.968 17.5391 206.185 17.5505V17.4075C206.185 16.3984 205.357 15.8946 203.699 15.8946C202.519 15.8946 201.478 16.0847 200.579 16.4617L200.039 15.3437C201.15 14.9034 202.524 14.6824 204.144 14.6824C207.271 14.6824 208.84 15.7386 208.84 17.8511V20.6721C208.84 21.4375 208.899 22.0469 209.013 22.4986ZM206.251 19.8661V18.6847C203.316 18.6522 201.849 19.1674 201.849 20.2285C201.849 20.6282 202.016 20.9272 202.359 21.1271C202.702 21.327 203.138 21.4261 203.659 21.4261C204.243 21.4261 204.788 21.3075 205.286 21.0719C205.786 20.8346 206.093 20.534 206.208 20.1651C206.236 20.0822 206.251 19.9815 206.251 19.8661Z" fill="white"/>
<path d="M224.131 22.4986H221.77L221.646 21.2685H221.572C220.818 22.2045 219.533 22.6725 217.728 22.6725C216.286 22.6725 215.085 22.3101 214.133 21.5854C213.181 20.8606 212.707 19.9197 212.707 18.7644C212.707 17.5245 213.222 16.5202 214.258 15.7532C215.261 15.0382 216.489 14.6807 217.952 14.6807C219.559 14.6807 220.683 15.0269 221.323 15.7207H221.374V11.3235H224.037V20.4349C224.037 21.1807 224.067 21.8681 224.131 22.4986ZM221.374 19.2681V17.9909C221.374 17.7699 221.349 17.5911 221.3 17.4546C221.15 17.0451 220.828 16.7006 220.338 16.4227C219.843 16.1449 219.246 16.0051 218.558 16.0051C217.566 16.0051 216.789 16.257 216.218 16.7624C215.652 17.2677 215.365 17.9129 215.365 18.701C215.365 19.4582 215.636 20.0725 216.182 20.5454C216.759 21.0491 217.535 21.301 218.508 21.301C219.381 21.301 220.079 21.0914 220.61 20.6705C221.123 20.2821 221.374 19.8141 221.374 19.2681Z" fill="white"/>
<path d="M246.886 18.6051C246.886 19.7832 246.36 20.7485 245.309 21.5057C244.207 22.2841 242.75 22.6725 240.925 22.6725C239.17 22.6725 237.772 22.3004 236.726 21.5529C235.685 20.807 235.164 19.8661 235.164 18.7319C235.164 17.5456 235.7 16.5722 236.776 15.8166C237.853 15.061 239.3 14.6824 241.125 14.6824C242.879 14.6824 244.293 15.0545 245.36 15.8004C246.375 16.5251 246.886 17.4611 246.886 18.6051ZM244.128 18.6604C244.128 17.9535 243.89 17.3474 243.415 16.842C242.854 16.231 242.062 15.9255 241.026 15.9255C239.96 15.9255 239.147 16.231 238.586 16.842C238.109 17.3474 237.873 17.9632 237.873 18.6912C237.873 19.3981 238.112 20.0042 238.586 20.5096C239.163 21.1206 239.965 21.4261 241.001 21.4261C242.016 21.4261 242.816 21.1157 243.39 20.4934C243.88 19.9782 244.128 19.3672 244.128 18.6604Z" fill="white"/>
<path d="M261.191 22.4986H258.533V18.1111C258.533 16.7591 257.731 16.0831 256.119 16.0831C255.329 16.0831 254.692 16.2684 254.2 16.6405C253.707 17.0126 253.461 17.4514 253.461 17.9535V22.497H250.798V17.0273C250.798 16.3545 250.767 15.6249 250.704 14.8351H253.039L253.164 16.0328H253.237C253.55 15.6606 254.012 15.3535 254.616 15.1081C255.339 14.8221 256.144 14.6775 257.03 14.6775C258.145 14.6775 259.074 14.9083 259.813 15.3714C260.734 15.9385 261.191 16.7851 261.191 17.9096V22.4986Z" fill="white"/>
<path d="M279.097 16.114H276.167V19.8352C276.167 20.781 276.688 21.2539 277.718 21.2539C278.196 21.2539 278.592 21.2279 278.904 21.1742L278.972 22.4661C278.447 22.5929 277.756 22.6562 276.906 22.6562C275.855 22.6562 275.037 22.4515 274.446 22.042C273.852 21.6325 273.557 20.9435 273.557 19.9766V16.114H271.808V14.8384H273.557V13.4344L276.165 12.9306V14.8367H279.094V16.114H279.097Z" fill="white"/>
<path d="M293.182 22.4986H290.519V18.1436C290.519 16.7705 289.716 16.0831 288.109 16.0831C286.875 16.0831 286.033 16.4812 285.571 17.2775C285.492 17.4449 285.446 17.6496 285.446 17.8901V22.497H282.788V11.3235H285.446V15.9401H285.497C286.335 15.1 287.536 14.6807 289.092 14.6807C290.194 14.6807 291.105 14.9115 291.829 15.3746C292.73 15.9515 293.182 16.8095 293.182 17.9437V22.4986Z" fill="white"/>
<path d="M307.711 18.3061C307.711 18.6116 307.675 18.8684 307.612 19.078H299.632C299.668 19.8352 300.049 20.4121 300.788 20.8119C301.463 21.1694 302.334 21.3481 303.4 21.3481C304.58 21.3481 305.657 21.2279 306.627 20.9857L307.043 22.1687C305.908 22.484 304.573 22.6416 303.027 22.6416C301.173 22.6416 299.714 22.2922 298.658 21.5935C297.596 20.8947 297.071 19.9571 297.071 18.7806C297.071 17.6252 297.561 16.6632 298.548 15.8962C299.579 15.0772 300.973 14.6677 302.732 14.6677C304.454 14.6677 305.761 15.0772 306.644 15.8962C307.358 16.5462 307.711 17.3506 307.711 18.3061ZM305.172 17.8657C305.192 17.3604 305.017 16.9249 304.657 16.5576C304.195 16.0847 303.491 15.8475 302.539 15.8475C301.671 15.8475 300.963 16.0782 300.422 16.5414C299.98 16.9102 299.719 17.3506 299.632 17.8657H305.172Z" fill="white"/>
<path d="M136.19 51.864H130.424L127.266 45.5118H116.289L113.28 51.864H107.667L118.543 30.2385H125.26L136.19 51.864ZM126.314 42.8468L123.458 37.2C123.156 36.6231 122.59 35.2646 121.754 33.1261H121.653C121.32 34.0458 120.785 35.4043 120.048 37.2L117.243 42.8468H126.314Z" fill="white"/>
<path d="M164.159 43.8755C164.159 46.5275 163.039 48.6238 160.8 50.1626C158.794 51.5325 156.304 52.2166 153.331 52.2166C150.122 52.2166 147.817 51.4789 146.413 50.0034H146.312V58.2178H140.899V41.4039C140.899 39.7366 140.83 38.0255 140.698 36.2705H145.458L145.761 38.7421H145.862C147.667 36.8799 150.406 35.9504 154.083 35.9504C156.956 35.9504 159.355 36.6768 161.275 38.1311C163.199 39.5871 164.159 41.5014 164.159 43.8755ZM158.645 44.0023C158.645 42.4845 158.111 41.2333 157.04 40.2485C155.87 39.2215 154.298 38.708 152.328 38.708C150.993 38.708 149.779 38.994 148.695 39.5579C147.609 40.1266 146.898 40.8693 146.565 41.789C146.398 42.218 146.314 42.569 146.314 42.8453V45.4453C146.314 46.5795 146.857 47.5366 147.944 48.3183C149.03 49.0999 150.442 49.4899 152.178 49.4899C154.217 49.4899 155.804 48.9861 156.939 47.9819C158.076 46.976 158.645 45.65 158.645 44.0023Z" fill="white"/>
<path d="M192.179 43.8755C192.179 46.5275 191.059 48.6238 188.817 50.1626C186.814 51.5325 184.324 52.2166 181.351 52.2166C178.142 52.2166 175.837 51.4789 174.435 50.0034H174.334V58.2178H168.921V41.4039C168.921 39.7366 168.853 38.0255 168.721 36.2705H173.481L173.783 38.7421H173.885C175.687 36.8799 178.426 35.9504 182.105 35.9504C184.976 35.9504 187.375 36.6768 189.3 38.1311C191.216 39.5871 192.179 41.5014 192.179 43.8755ZM186.665 44.0023C186.665 42.4845 186.129 41.2333 185.057 40.2485C183.887 39.2215 182.321 38.708 180.348 38.708C179.01 38.708 177.799 38.994 176.713 39.5579C175.626 40.1266 174.918 40.8693 174.585 41.789C174.42 42.218 174.334 42.569 174.334 42.8453V45.4453C174.334 46.5795 174.877 47.5366 175.959 48.3183C177.045 49.0983 178.457 49.4899 180.198 49.4899C182.237 49.4899 183.824 48.9861 184.958 47.9819C186.096 46.976 186.665 45.65 186.665 44.0023Z" fill="white"/>
<path d="M223.506 45.7995C223.506 47.639 222.509 49.1356 220.506 50.291C218.305 51.5536 215.24 52.1841 211.303 52.1841C207.667 52.1841 204.753 51.7356 202.547 50.837L203.801 47.9494C206.177 48.8691 208.784 49.3306 211.625 49.3306C213.664 49.3306 215.25 49.0349 216.39 48.4466C217.525 47.8584 218.091 47.0686 218.091 46.0839C218.091 45.2064 217.624 44.467 216.687 43.8674C215.756 43.2677 214.199 42.7104 212.026 42.1952C206.111 40.7831 203.156 38.7145 203.156 35.9942C203.156 34.2165 204.192 32.7589 206.266 31.6246C208.332 30.4887 211.09 29.9216 214.537 29.9216C217.611 29.9216 220.165 30.2645 222.204 30.9486L220.851 33.7729C218.947 33.1099 216.794 32.7784 214.385 32.7784C212.481 32.7784 210.993 33.079 209.927 33.677C209.026 34.2116 208.574 34.8632 208.574 35.6351C208.574 36.4899 209.089 37.1967 210.125 37.7525C211.026 38.266 212.664 38.8217 215.04 39.4214C217.947 40.1705 220.082 41.0464 221.455 42.0506C222.823 43.0516 223.506 44.3045 223.506 45.7995Z" fill="white"/>
<path d="M241.402 38.8705H235.436V46.4414C235.436 48.367 236.487 49.329 238.594 49.329C239.561 49.329 240.364 49.2754 240.998 49.1681L241.148 51.799C240.082 52.0541 238.678 52.1825 236.939 52.1825C234.801 52.1825 233.131 51.7649 231.925 50.9312C230.724 50.096 230.12 48.6952 230.12 46.7274V38.8672H226.566V36.2672H230.12V33.4121L235.436 32.3851V36.2672H241.402V38.8705Z" fill="white"/>
<path d="M268.32 43.9389C268.32 46.3357 267.249 48.3036 265.111 49.8425C262.869 51.4269 259.894 52.2166 256.185 52.2166C252.61 52.2166 249.764 51.4577 247.642 49.94C245.52 48.4222 244.458 46.5064 244.458 44.1972C244.458 41.7809 245.55 39.8016 247.741 38.2627C249.927 36.7222 252.877 35.952 256.586 35.952C260.16 35.952 263.037 36.7109 265.207 38.2302C267.284 39.7041 268.32 41.607 268.32 43.9389ZM262.704 44.051C262.704 42.6129 262.224 41.3795 261.252 40.3509C260.117 39.1061 258.495 38.4854 256.393 38.4854C254.217 38.4854 252.565 39.1077 251.43 40.3509C250.457 41.3811 249.978 42.634 249.978 44.116C249.978 45.5541 250.457 46.7875 251.43 47.8145C252.6 49.0592 254.235 49.68 256.345 49.68C258.411 49.68 260.033 49.0462 261.204 47.782C262.202 46.7339 262.704 45.4875 262.704 44.051Z" fill="white"/>
<path d="M285.913 39.3174C285.378 39.254 284.806 39.2215 284.207 39.2215C282.303 39.2215 280.831 39.6814 279.795 40.6028C278.894 41.4153 278.442 42.4423 278.442 43.6821V51.864H273.032L273.082 41.1813C273.082 39.384 273.014 37.7476 272.879 36.2721H277.594L277.792 39.2556H277.942C278.513 38.2303 279.414 37.4048 280.648 36.7856C281.854 36.2283 283.156 35.9504 284.56 35.9504C285.06 35.9504 285.512 35.9731 285.913 36.0138V39.3174Z" fill="white"/>
<path d="M310.12 43.3295C310.12 43.9502 310.056 44.4735 309.922 44.9009H293.684C293.748 46.4414 294.532 47.6195 296.04 48.432C297.409 49.1584 299.178 49.5224 301.351 49.5224C303.755 49.5224 305.949 49.277 307.921 48.7846L308.769 51.1896C306.464 51.8331 303.743 52.1532 300.602 52.1532C296.825 52.1532 293.859 51.4415 291.702 50.0196C289.549 48.5977 288.47 46.6884 288.47 44.2931C288.47 41.9417 289.473 39.9836 291.481 38.422C293.583 36.7547 296.424 35.9211 299.998 35.9211C303.509 35.9211 306.167 36.7547 307.972 38.422C309.401 39.7464 310.12 41.3844 310.12 43.3295ZM304.959 42.4309C304.994 41.4039 304.641 40.5166 303.908 39.7675C302.971 38.8039 301.531 38.3229 299.594 38.3229C297.825 38.3229 296.385 38.7925 295.286 39.735C294.385 40.4841 293.849 41.3827 293.684 42.4292H304.959V42.4309Z" fill="white"/>
</svg>
