<svg width="227" height="63" viewBox="0 0 227 63" fill="none" xmlns="http://www.w3.org/2000/svg">
<path d="M225.137 55.7345C225.137 59.0919 222.26 61.8114 218.701 61.8114H8.09188C4.53498 61.8114 1.64783 59.0919 1.64783 55.7345V7.27352C1.64783 3.91776 4.53498 1.18872 8.09188 1.18872H218.699C222.26 1.18872 225.135 3.91776 225.135 7.27352L225.137 55.7345Z" fill="black"/>
<path d="M218.022 1.26197C221.897 1.26197 225.051 4.22888 225.051 7.875V55.125C225.051 58.7711 221.897 61.738 218.022 61.738H8.76264C4.88716 61.738 1.73362 58.7711 1.73362 55.125V7.875C1.73362 4.22888 4.88716 1.26197 8.76264 1.26197H218.022ZM218.022 3.8147e-06H8.76264C4.16103 3.8147e-06 0.392273 3.54572 0.392273 7.875V55.125C0.392273 59.4543 4.16103 63 8.76264 63H218.022C222.624 63 226.392 59.4543 226.392 55.125V7.875C226.392 3.54572 222.624 3.8147e-06 218.022 3.8147e-06Z" fill="#A6A6A6"/>
<path d="M50.8288 31.1598C50.7802 26.0835 55.2467 23.6139 55.4509 23.499C52.9214 20.0292 49.0007 19.5552 47.6229 19.5174C44.33 19.1913 41.1359 21.3711 39.4585 21.3711C37.7476 21.3711 35.1645 19.5489 32.3805 19.6024C28.798 19.6544 25.4465 21.6058 23.6083 24.6361C19.8149 30.8148 22.6441 39.8947 26.2785 44.889C28.0965 47.335 30.2209 50.0661 33.0016 49.97C35.7219 49.8645 36.7381 48.3383 40.021 48.3383C43.2737 48.3383 44.2279 49.97 47.0638 49.9086C49.9834 49.8645 51.8215 47.4516 53.5759 44.9835C55.6769 42.18 56.5206 39.4191 56.5541 39.2773C56.4855 39.2553 50.884 37.244 50.8288 31.1598Z" fill="white"/>
<path d="M45.4717 16.2319C46.9349 14.5104 47.936 12.1684 47.6581 9.79175C45.5404 9.87995 42.892 11.1699 41.3669 12.8535C40.0176 14.3372 38.8123 16.769 39.1237 19.0559C41.5025 19.2228 43.945 17.9266 45.4717 16.2319Z" fill="white"/>
<path d="M82.5056 15.7642C82.5056 17.618 81.9147 19.0134 80.7345 19.9505C79.6413 20.8152 78.0878 21.2483 76.0755 21.2483C75.0778 21.2483 74.224 21.2074 73.5092 21.1255V10.9967C74.4416 10.8549 75.4461 10.7825 76.5309 10.7825C78.4477 10.7825 79.8924 11.1746 80.8667 11.959C81.9582 12.8457 82.5056 14.1136 82.5056 15.7642ZM80.6558 15.8099C80.6558 14.6081 80.3176 13.6868 79.6413 13.0442C78.965 12.4031 77.9773 12.0818 76.6765 12.0818C76.1241 12.0818 75.6536 12.1165 75.2636 12.1889V19.8891C75.4795 19.9206 75.8746 19.9348 76.4488 19.9348C77.7914 19.9348 78.8277 19.5836 79.5576 18.8811C80.2875 18.1787 80.6558 17.1549 80.6558 15.8099Z" fill="white"/>
<path d="M92.314 17.3833C92.314 18.5252 91.9675 19.4608 91.2744 20.1947C90.5479 20.9491 89.5853 21.3256 88.3833 21.3256C87.2249 21.3256 86.3024 20.9649 85.6144 20.2404C84.928 19.5175 84.5848 18.6055 84.5848 17.5062C84.5848 16.3564 84.9381 15.413 85.6479 14.6806C86.3577 13.9483 87.3119 13.5813 88.5139 13.5813C89.6724 13.5813 90.6031 13.942 91.3079 14.6649C91.9776 15.3673 92.314 16.2745 92.314 17.3833ZM90.4943 17.4369C90.4943 16.7518 90.337 16.1643 90.0239 15.6745C89.6556 15.0823 89.1316 14.7862 88.4503 14.7862C87.7455 14.7862 87.2098 15.0823 86.8415 15.6745C86.5268 16.1643 86.3711 16.7612 86.3711 17.4668C86.3711 18.1519 86.5284 18.7394 86.8415 19.2292C87.2215 19.8214 87.7505 20.1175 88.4335 20.1175C89.1032 20.1175 89.6288 19.8167 90.0072 19.2135C90.3319 18.7142 90.4943 18.122 90.4943 17.4369Z" fill="white"/>
<path d="M105.466 13.7324L102.996 21.157H101.389L100.366 17.9329C100.107 17.1281 99.8959 16.328 99.7319 15.5342H99.7001C99.5477 16.3501 99.3368 17.1486 99.0656 17.9329L97.9791 21.157H96.3536L94.0316 13.7324H95.8346L96.7269 17.262C96.9429 18.0967 97.1203 18.8921 97.2626 19.645H97.2944C97.425 19.0244 97.6409 18.2338 97.9456 17.2777L99.0656 13.734H100.495L101.568 17.2021C101.828 18.0479 102.039 18.8622 102.201 19.6465H102.25C102.369 18.8827 102.548 18.0684 102.785 17.2021L103.743 13.734H105.466V13.7324Z" fill="white"/>
<path d="M114.561 21.1569H112.806V16.9044C112.806 15.594 112.277 14.9388 111.216 14.9388C110.695 14.9388 110.275 15.1183 109.949 15.479C109.626 15.8397 109.462 16.2649 109.462 16.7516V21.1553H107.707V15.8539C107.707 15.2018 107.685 14.4946 107.644 13.7292H109.185L109.267 14.89H109.316C109.52 14.5293 109.825 14.2316 110.225 13.9938C110.7 13.7166 111.233 13.5764 111.815 13.5764C112.552 13.5764 113.165 13.8001 113.652 14.2489C114.258 14.7986 114.561 15.6192 114.561 16.7091V21.1569Z" fill="white"/>
<path d="M119.399 21.157H117.646V10.3257H119.399V21.157Z" fill="white"/>
<path d="M129.728 17.3833C129.728 18.5252 129.381 19.4608 128.688 20.1947C127.962 20.9491 126.998 21.3256 125.797 21.3256C124.637 21.3256 123.715 20.9649 123.028 20.2404C122.342 19.5175 121.999 18.6055 121.999 17.5062C121.999 16.3564 122.352 15.413 123.062 14.6806C123.772 13.9483 124.726 13.5813 125.926 13.5813C127.086 13.5813 128.015 13.942 128.722 14.6649C129.391 15.3673 129.728 16.2745 129.728 17.3833ZM127.907 17.4369C127.907 16.7518 127.749 16.1643 127.436 15.6745C127.069 15.0823 126.544 14.7862 125.864 14.7862C125.158 14.7862 124.622 15.0823 124.255 15.6745C123.941 16.1643 123.785 16.7612 123.785 17.4668C123.785 18.1519 123.942 18.7394 124.255 19.2292C124.635 19.8214 125.164 20.1175 125.847 20.1175C126.517 20.1175 127.041 19.8167 127.419 19.2135C127.746 18.7142 127.907 18.122 127.907 17.4369Z" fill="white"/>
<path d="M138.219 21.157H136.644L136.513 20.3018H136.464C135.925 20.9838 135.157 21.3256 134.159 21.3256C133.414 21.3256 132.812 21.1003 132.358 20.653C131.946 20.2467 131.74 19.7411 131.74 19.141C131.74 18.2338 132.142 17.5424 132.951 17.0636C133.757 16.5848 134.892 16.3501 136.354 16.3612V16.2226C136.354 15.2445 135.808 14.7562 134.715 14.7562C133.937 14.7562 133.25 14.9405 132.658 15.3059L132.301 14.2223C133.034 13.7955 133.94 13.5813 135.008 13.5813C137.07 13.5813 138.105 14.605 138.105 16.6525V19.3867C138.105 20.1286 138.143 20.7192 138.219 21.157ZM136.397 18.6055V17.4605C134.462 17.429 133.495 17.9283 133.495 18.9568C133.495 19.3442 133.605 19.634 133.831 19.8277C134.057 20.0215 134.345 20.1175 134.688 20.1175C135.073 20.1175 135.433 20.0026 135.761 19.7742C136.091 19.5442 136.294 19.2529 136.369 18.8953C136.387 18.815 136.397 18.7174 136.397 18.6055Z" fill="white"/>
<path d="M148.188 21.157H146.631L146.549 19.9647H146.5C146.003 20.8719 145.156 21.3255 143.966 21.3255C143.015 21.3255 142.223 20.9743 141.595 20.2718C140.968 19.5694 140.655 18.6574 140.655 17.5376C140.655 16.3359 140.994 15.3625 141.677 14.6191C142.339 13.9261 143.149 13.5796 144.113 13.5796C145.173 13.5796 145.915 13.9151 146.336 14.5876H146.37V10.3257H148.126V19.1567C148.126 19.8796 148.146 20.5459 148.188 21.157ZM146.37 18.0259V16.7879C146.37 16.5737 146.353 16.4005 146.321 16.2682C146.223 15.8713 146.01 15.5374 145.687 15.268C145.36 14.9987 144.967 14.8633 144.513 14.8633C143.859 14.8633 143.347 15.1074 142.97 15.5972C142.597 16.087 142.407 16.7123 142.407 17.4762C142.407 18.2101 142.587 18.8055 142.946 19.2638C143.326 19.7521 143.839 19.9962 144.48 19.9962C145.056 19.9962 145.516 19.793 145.866 19.3851C146.204 19.0087 146.37 18.5551 146.37 18.0259Z" fill="white"/>
<path d="M163.193 17.3833C163.193 18.5252 162.846 19.4608 162.153 20.1947C161.427 20.9491 160.466 21.3256 159.262 21.3256C158.105 21.3256 157.183 20.9649 156.493 20.2404C155.807 19.5175 155.463 18.6055 155.463 17.5062C155.463 16.3564 155.817 15.413 156.527 14.6806C157.236 13.9483 158.191 13.5813 159.394 13.5813C160.551 13.5813 161.483 13.942 162.187 14.6649C162.856 15.3673 163.193 16.2745 163.193 17.3833ZM161.375 17.4369C161.375 16.7518 161.217 16.1643 160.904 15.6745C160.534 15.0823 160.012 14.7862 159.329 14.7862C158.626 14.7862 158.09 15.0823 157.72 15.6745C157.405 16.1643 157.25 16.7612 157.25 17.4668C157.25 18.1519 157.407 18.7394 157.72 19.2292C158.1 19.8214 158.629 20.1175 159.312 20.1175C159.982 20.1175 160.509 19.8167 160.887 19.2135C161.211 18.7142 161.375 18.122 161.375 17.4369Z" fill="white"/>
<path d="M172.626 21.1569H170.873V16.9044C170.873 15.594 170.344 14.9388 169.281 14.9388C168.761 14.9388 168.34 15.1183 168.016 15.479C167.691 15.8397 167.529 16.2649 167.529 16.7516V21.1553H165.772V15.8539C165.772 15.2018 165.752 14.4946 165.71 13.7292H167.251L167.333 14.89H167.381C167.587 14.5293 167.892 14.2316 168.29 13.9938C168.767 13.7166 169.298 13.5764 169.882 13.5764C170.617 13.5764 171.23 13.8001 171.717 14.2489C172.325 14.7986 172.626 15.6192 172.626 16.7091V21.1569Z" fill="white"/>
<path d="M184.433 14.9687H182.501V18.5755C182.501 19.4921 182.845 19.9505 183.524 19.9505C183.839 19.9505 184.1 19.9253 184.306 19.8733L184.351 21.1254C184.005 21.2483 183.549 21.3097 182.989 21.3097C182.296 21.3097 181.756 21.1112 181.366 20.7143C180.975 20.3174 180.781 19.6496 180.781 18.7125V14.9687H179.627V13.7324H180.781V12.3716L182.5 11.8833V13.7308H184.432V14.9687H184.433Z" fill="white"/>
<path d="M193.721 21.157H191.965V16.936C191.965 15.6051 191.436 14.9389 190.376 14.9389C189.563 14.9389 189.007 15.3247 188.702 16.0965C188.65 16.2587 188.62 16.4572 188.62 16.6903V21.1554H186.867V10.3257H188.62V14.8003H188.654C189.206 13.986 189.998 13.5796 191.024 13.5796C191.751 13.5796 192.352 13.8033 192.829 14.2522C193.423 14.8113 193.721 15.6429 193.721 16.7422V21.157Z" fill="white"/>
<path d="M203.302 17.0936C203.302 17.3897 203.278 17.6385 203.236 17.8417H197.975C197.998 18.5756 198.249 19.1348 198.737 19.5222C199.182 19.8687 199.756 20.042 200.459 20.042C201.238 20.042 201.947 19.9254 202.587 19.6907L202.861 20.8373C202.113 21.1429 201.233 21.2957 200.213 21.2957C198.991 21.2957 198.028 20.957 197.332 20.2798C196.632 19.6025 196.286 18.6938 196.286 17.5535C196.286 16.4336 196.609 15.5012 197.26 14.7578C197.94 13.964 198.859 13.5671 200.019 13.5671C201.154 13.5671 202.016 13.964 202.599 14.7578C203.069 15.3878 203.302 16.1675 203.302 17.0936ZM201.628 16.6667C201.641 16.1769 201.526 15.7548 201.288 15.3989C200.983 14.9405 200.519 14.7106 199.892 14.7106C199.319 14.7106 198.852 14.9342 198.496 15.3831C198.204 15.7406 198.032 16.1675 197.975 16.6667H201.628Z" fill="white"/>
<path d="M90.198 49.6188H86.3961L84.3136 43.4621H77.0749L75.0911 49.6188H71.3897L78.5615 28.6587H82.9911L90.198 49.6188ZM83.6858 40.8791L81.8025 35.406C81.6033 34.8469 81.2299 33.5302 80.6792 31.4575H80.6122C80.3929 32.3489 80.0397 33.6656 79.5542 35.406L77.7043 40.8791H83.6858Z" fill="white"/>
<path d="M108.641 41.8761C108.641 44.4465 107.903 46.4782 106.426 47.9698C105.104 49.2975 103.462 49.9606 101.501 49.9606C99.3853 49.9606 97.8652 49.2455 96.9395 47.8154H96.8725V55.7771H93.3034V39.4805C93.3034 37.8646 93.2582 36.2061 93.1711 34.5051H96.31L96.5092 36.9007H96.5762C97.7664 35.0957 99.5728 34.1948 101.997 34.1948C103.892 34.1948 105.474 34.8988 106.739 36.3085C108.008 37.7197 108.641 39.575 108.641 41.8761ZM105.005 41.9989C105.005 40.5279 104.654 39.3151 103.947 38.3607C103.175 37.3653 102.139 36.8676 100.84 36.8676C99.9595 36.8676 99.1593 37.1448 98.4444 37.6913C97.7279 38.2426 97.2592 38.9623 97.0399 39.8538C96.9294 40.2696 96.8742 40.6098 96.8742 40.8775V43.3975C96.8742 44.4969 97.2324 45.4246 97.9489 46.1821C98.6654 46.9397 99.5962 47.3177 100.741 47.3177C102.086 47.3177 103.132 46.8295 103.88 45.8561C104.63 44.8812 105.005 43.596 105.005 41.9989Z" fill="white"/>
<path d="M127.118 41.8761C127.118 44.4465 126.38 46.4782 124.902 47.9698C123.581 49.2975 121.938 49.9606 119.978 49.9606C117.862 49.9606 116.342 49.2455 115.418 47.8154H115.351V55.7771H111.782V39.4805C111.782 37.8646 111.737 36.2061 111.65 34.5051H114.788L114.988 36.9007H115.055C116.243 35.0957 118.05 34.1948 120.475 34.1948C122.369 34.1948 123.951 34.8988 125.22 36.3085C126.484 37.7197 127.118 39.575 127.118 41.8761ZM123.482 41.9989C123.482 40.5279 123.129 39.3151 122.422 38.3607C121.65 37.3653 120.618 36.8676 119.317 36.8676C118.435 36.8676 117.636 37.1448 116.92 37.6913C116.203 38.2426 115.736 38.9623 115.517 39.8538C115.408 40.2696 115.351 40.6098 115.351 40.8775V43.3975C115.351 44.4969 115.709 45.4246 116.422 46.1821C117.139 46.9381 118.07 47.3177 119.218 47.3177C120.562 47.3177 121.609 46.8295 122.357 45.8561C123.107 44.8812 123.482 43.596 123.482 41.9989Z" fill="white"/>
<path d="M147.776 43.7409C147.776 45.5238 147.118 46.9744 145.797 48.0942C144.346 49.318 142.325 49.9291 139.729 49.9291C137.332 49.9291 135.41 49.4944 133.955 48.6234L134.782 45.8246C136.349 46.7161 138.068 47.1634 139.941 47.1634C141.286 47.1634 142.332 46.8767 143.084 46.3066C143.832 45.7364 144.205 44.971 144.205 44.0165C144.205 43.166 143.897 42.4494 143.279 41.8682C142.665 41.287 141.639 40.7468 140.206 40.2475C136.305 38.8789 134.357 36.8739 134.357 34.2373C134.357 32.5143 135.04 31.1015 136.407 30.0022C137.77 28.9012 139.588 28.3516 141.862 28.3516C143.889 28.3516 145.573 28.6839 146.917 29.347L146.025 32.0843C144.769 31.4417 143.35 31.1204 141.761 31.1204C140.506 31.1204 139.525 31.4118 138.821 31.9914C138.227 32.5096 137.929 33.1411 137.929 33.8893C137.929 34.7177 138.269 35.4028 138.952 35.9415C139.546 36.4392 140.626 36.9778 142.193 37.559C144.11 38.2851 145.518 39.134 146.423 40.1074C147.326 41.0776 147.776 42.2919 147.776 43.7409Z" fill="white"/>
<path d="M159.577 37.0251H155.643V44.363C155.643 46.2294 156.336 47.1618 157.725 47.1618C158.363 47.1618 158.892 47.1098 159.31 47.0059L159.409 49.5558C158.706 49.8031 157.78 49.9275 156.634 49.9275C155.224 49.9275 154.122 49.5227 153.327 48.7147C152.535 47.9052 152.137 46.5475 152.137 44.6402V37.0219H149.793V34.5019H152.137V31.7347L155.643 30.7393V34.5019H159.577V37.0251Z" fill="white"/>
<path d="M177.327 41.9374C177.327 44.2605 176.62 46.1679 175.211 47.6594C173.733 49.195 171.771 49.9605 169.325 49.9605C166.968 49.9605 165.091 49.2249 163.691 47.7539C162.292 46.2828 161.592 44.4259 161.592 42.1878C161.592 39.8458 162.312 37.9275 163.757 36.4359C165.198 34.9428 167.143 34.1963 169.589 34.1963C171.946 34.1963 173.843 34.9318 175.274 36.4044C176.644 37.833 177.327 39.6773 177.327 41.9374ZM173.624 42.0461C173.624 40.6522 173.307 39.4568 172.666 38.4598C171.918 37.2534 170.848 36.6517 169.462 36.6517C168.027 36.6517 166.938 37.2549 166.189 38.4598C165.548 39.4584 165.232 40.6727 165.232 42.1091C165.232 43.503 165.548 44.6984 166.189 45.6938C166.961 46.9002 168.039 47.5019 169.43 47.5019C170.793 47.5019 171.863 46.8876 172.634 45.6623C173.292 44.6464 173.624 43.4384 173.624 42.0461Z" fill="white"/>
<path d="M188.928 37.4582C188.575 37.3968 188.198 37.3653 187.803 37.3653C186.548 37.3653 185.577 37.811 184.894 38.704C184.299 39.4915 184.001 40.4869 184.001 41.6887V49.6188H180.434L180.467 39.2647C180.467 37.5228 180.422 35.9368 180.333 34.5067H183.442L183.573 37.3984H183.672C184.048 36.4045 184.643 35.6044 185.456 35.0044C186.251 34.4641 187.11 34.1948 188.036 34.1948C188.366 34.1948 188.664 34.2169 188.928 34.2562V37.4582Z" fill="white"/>
<path d="M204.89 41.3469C204.89 41.9486 204.849 42.4557 204.76 42.87H194.052C194.094 44.3631 194.612 45.5049 195.606 46.2924C196.508 46.9965 197.675 47.3493 199.108 47.3493C200.694 47.3493 202.14 47.1114 203.441 46.6342L204 48.9652C202.48 49.5889 200.685 49.8992 198.614 49.8992C196.123 49.8992 194.168 49.2093 192.745 47.8312C191.325 46.4531 190.614 44.6025 190.614 42.2809C190.614 40.0019 191.275 38.104 192.599 36.5904C193.986 34.9745 195.859 34.1665 198.216 34.1665C200.531 34.1665 202.284 34.9745 203.474 36.5904C204.417 37.8741 204.89 39.4617 204.89 41.3469ZM201.487 40.476C201.51 39.4806 201.278 38.6206 200.794 37.8945C200.176 36.9606 199.227 36.4944 197.95 36.4944C196.783 36.4944 195.834 36.9495 195.109 37.863C194.515 38.5891 194.161 39.4601 194.052 40.4744H201.487V40.476Z" fill="white"/>
</svg>
