<svg width="1280" height="149" viewBox="0 0 1280 149" fill="none" xmlns="http://www.w3.org/2000/svg">
<rect width="1280" height="149" fill="#ACD1F2"/>
<path d="M312.478 88.43V64.7092H304.677V60.57H324.816V64.7092H316.776V88.43H312.478Z" fill="black"/>
<path d="M288.955 88.828C287.443 88.828 286.036 88.629 284.736 88.231C283.463 87.833 282.295 87.236 281.234 86.44C280.199 85.6175 279.27 84.6092 278.448 83.4152L281.393 80.0322C282.693 81.8895 283.94 83.1764 285.134 83.8928C286.328 84.6092 287.748 84.9674 289.393 84.9674C290.401 84.9674 291.316 84.8082 292.139 84.4898C292.961 84.1714 293.612 83.7336 294.089 83.1764C294.567 82.6192 294.806 81.9824 294.806 81.266C294.806 80.7884 294.726 80.3373 294.567 79.9128C294.408 79.4883 294.155 79.1035 293.811 78.7586C293.492 78.4137 293.068 78.0953 292.537 77.8034C292.033 77.5115 291.436 77.2595 290.746 77.0472C290.056 76.8084 289.26 76.6094 288.358 76.4502C286.925 76.1583 285.678 75.7736 284.617 75.296C283.555 74.8184 282.667 74.2214 281.95 73.505C281.234 72.7886 280.703 71.9793 280.358 71.0772C280.013 70.1485 279.841 69.1137 279.841 67.9728C279.841 66.8584 280.08 65.8236 280.557 64.8684C281.061 63.9132 281.738 63.0907 282.587 62.4008C283.463 61.6844 284.484 61.1405 285.652 60.769C286.819 60.371 288.079 60.172 289.433 60.172C290.865 60.172 292.179 60.3577 293.373 60.7292C294.567 61.1007 295.628 61.6579 296.557 62.4008C297.485 63.1172 298.255 64.0061 298.865 65.0674L295.84 68.0524C295.31 67.1768 294.713 66.4471 294.049 65.8634C293.386 65.2531 292.656 64.8021 291.86 64.5102C291.064 64.1918 290.215 64.0326 289.313 64.0326C288.278 64.0326 287.376 64.1918 286.607 64.5102C285.837 64.8286 285.227 65.2797 284.776 65.8634C284.351 66.4206 284.139 67.0839 284.139 67.8534C284.139 68.4106 284.245 68.928 284.458 69.4056C284.67 69.8567 284.988 70.2679 285.413 70.6394C285.864 70.9843 286.461 71.3027 287.204 71.5946C287.947 71.8599 288.836 72.0987 289.87 72.311C291.33 72.6294 292.63 73.0407 293.771 73.5448C294.912 74.0224 295.88 74.5929 296.676 75.2562C297.472 75.9195 298.069 76.6625 298.467 77.485C298.892 78.3075 299.104 79.1964 299.104 80.1516C299.104 81.9293 298.693 83.4683 297.87 84.7684C297.048 86.0685 295.88 87.0768 294.368 87.7932C292.855 88.4831 291.051 88.828 288.955 88.828Z" fill="black"/>
<path d="M260.121 88.6688C257.972 88.6688 256.048 88.2045 254.35 87.2758C252.652 86.3206 251.312 85.0205 250.33 83.3754C249.375 81.7038 248.898 79.8199 248.898 77.7238V60.5302H253.196V77.3656C253.196 78.7188 253.514 79.9393 254.151 81.0272C254.788 82.0885 255.624 82.9376 256.659 83.5744C257.72 84.2112 258.874 84.5296 260.121 84.5296C261.448 84.5296 262.642 84.2112 263.703 83.5744C264.791 82.9376 265.653 82.0885 266.29 81.0272C266.927 79.9393 267.245 78.7188 267.245 77.3656V60.5302H271.345V77.7238C271.345 79.8199 270.854 81.7038 269.872 83.3754C268.917 85.0205 267.59 86.3206 265.892 87.2758C264.194 88.2045 262.27 88.6688 260.121 88.6688Z" fill="black"/>
<path d="M224.257 88.43V60.57H228.556V84.2908H241.61V88.43H224.257Z" fill="black"/>
<path d="M194.594 88.43V60.57H206.454C208.046 60.57 209.506 60.968 210.832 61.764C212.185 62.5335 213.26 63.5948 214.056 64.948C214.852 66.2747 215.25 67.7738 215.25 69.4454C215.25 70.9578 214.852 72.3641 214.056 73.6642C213.26 74.9643 212.199 76.0124 210.872 76.8084C209.545 77.5779 208.073 77.9626 206.454 77.9626H198.892V88.43H194.594ZM211.151 88.43L204.066 75.8532L208.484 74.8582L216.364 88.4698L211.151 88.43ZM198.892 73.8234H206.852C207.622 73.8234 208.312 73.6377 208.922 73.2662C209.532 72.8682 210.01 72.3375 210.355 71.6742C210.7 70.9843 210.872 70.2281 210.872 69.4056C210.872 68.4769 210.647 67.6677 210.195 66.9778C209.771 66.2614 209.161 65.7042 208.365 65.3062C207.595 64.9082 206.72 64.7092 205.738 64.7092H198.892V73.8234Z" fill="black"/>
<path d="M168.156 88.43V60.57H185.708V64.7092H172.455V84.2908H185.708V88.43H168.156ZM170.107 76.2114V72.0722H183.519V76.2114H170.107Z" fill="black"/>
<path d="M136.394 88.43V60.57H147.299C149.289 60.57 151.08 60.9017 152.672 61.565C154.291 62.2283 155.671 63.1835 156.812 64.4306C157.952 65.6777 158.828 67.1503 159.438 68.8484C160.049 70.5465 160.354 72.4304 160.354 74.5C160.354 76.5696 160.049 78.4667 159.438 80.1914C158.828 81.8895 157.952 83.3621 156.812 84.6092C155.697 85.8297 154.331 86.7717 152.712 87.435C151.094 88.0983 149.289 88.43 147.299 88.43H136.394ZM140.693 84.7286L140.573 84.2908H147.1C148.507 84.2908 149.754 84.0653 150.842 83.6142C151.956 83.1631 152.885 82.5263 153.628 81.7038C154.397 80.8547 154.981 79.8199 155.379 78.5994C155.777 77.3789 155.976 76.0124 155.976 74.5C155.976 72.9876 155.777 71.6344 155.379 70.4404C154.981 69.2199 154.397 68.1851 153.628 67.336C152.858 66.4869 151.929 65.8369 150.842 65.3858C149.754 64.9347 148.507 64.7092 147.1 64.7092H140.454L140.693 64.351V84.7286Z" fill="black"/>
<path d="M102.844 88.43V60.57H106.705L123.739 83.3754L123.102 83.7336C122.996 83.0703 122.903 82.3539 122.824 81.5844C122.744 80.7884 122.664 79.9526 122.585 79.077C122.532 78.1749 122.479 77.2329 122.426 76.2512C122.399 75.2429 122.372 74.1949 122.346 73.107C122.319 72.0191 122.306 70.8915 122.306 69.724V60.57H126.605V88.43H122.664L105.909 66.4604L106.346 65.9032C106.479 67.5217 106.585 68.9015 106.665 70.0424C106.771 71.1568 106.85 72.112 106.904 72.908C106.983 73.6775 107.036 74.3143 107.063 74.8184C107.089 75.296 107.103 75.694 107.103 76.0124C107.129 76.3308 107.142 76.6094 107.142 76.8482V88.43H102.844Z" fill="black"/>
<path d="M70.0808 88.43L80.8666 60.57H85.2446L95.9508 88.43H91.3738L85.0058 71.6344C84.9262 71.4487 84.767 70.9976 84.5282 70.2812C84.3159 69.5648 84.0639 68.7688 83.772 67.8932C83.4801 67.0176 83.2148 66.2216 82.976 65.5052C82.7372 64.7623 82.578 64.2847 82.4984 64.0724L83.4138 64.0326C83.2546 64.4837 83.0556 65.0541 82.8168 65.744C82.6045 66.4339 82.3657 67.1635 82.1004 67.933C81.8616 68.7025 81.6228 69.4321 81.384 70.122C81.1452 70.7853 80.9462 71.3425 80.787 71.7936L74.4588 88.43H70.0808ZM74.8568 81.5048L76.4488 77.3656H89.1052L90.936 81.5048H74.8568Z" fill="black"/>
<path d="M38.8754 88.43L30 60.57H34.577L39.95 78.0024C40.1092 78.4269 40.2551 78.9311 40.3878 79.5148C40.5205 80.072 40.6399 80.6425 40.746 81.2262C40.8521 81.8099 40.945 82.3539 41.0246 82.858C41.1307 83.3621 41.2236 83.7734 41.3032 84.0918L40.149 84.052C40.547 82.6457 40.8521 81.5579 41.0644 80.7884C41.3032 80.0189 41.4889 79.4352 41.6216 79.0372C41.7543 78.6127 41.8737 78.2545 41.9798 77.9626L46.9946 65.3858H50.8552L55.7108 77.9626C55.9761 78.5994 56.2017 79.2362 56.3874 79.873C56.5997 80.4833 56.7854 81.1068 56.9446 81.7436C57.1038 82.3539 57.2763 83.0039 57.462 83.6938L56.4272 83.9724C56.5599 83.256 56.6527 82.6988 56.7058 82.3008C56.7854 81.8763 56.8517 81.5313 56.9048 81.266C56.9579 81.0007 57.0109 80.7486 57.064 80.5098C57.1171 80.2445 57.1967 79.9128 57.3028 79.5148C57.4355 79.1168 57.6079 78.5729 57.8202 77.883L63.1136 60.57H67.7304L58.855 88.43H55.87L48.507 70.9976L48.8652 71.1568L41.7808 88.43H38.8754Z" fill="black"/>
<rect x="898.816" y="27" width="151.576" height="90.5707" rx="20" fill="#A69021"/>
<path d="M1034.24 81.5707V67.3778H1036.7L1036.88 70.5562L1036.54 70.1964C1036.66 69.61 1036.88 69.0903 1037.2 68.6372C1037.53 68.1841 1037.95 67.8309 1038.45 67.5777C1038.96 67.3112 1039.53 67.1779 1040.15 67.1779C1040.97 67.1779 1041.69 67.3845 1042.33 67.7976C1042.97 68.2107 1043.47 68.8038 1043.83 69.5767C1044.2 70.3363 1044.39 71.2625 1044.39 72.3553C1044.39 73.4481 1044.2 74.3876 1043.83 75.1739C1043.46 75.9469 1042.95 76.5399 1042.29 76.953C1041.65 77.3662 1040.92 77.5727 1040.09 77.5727C1039.21 77.5727 1038.48 77.3262 1037.89 76.8331C1037.32 76.34 1036.93 75.7203 1036.72 74.974L1036.98 74.5542V81.5707H1034.24ZM1039.29 75.4738C1040.03 75.4738 1040.6 75.2139 1041.01 74.6942C1041.44 74.1611 1041.65 73.3881 1041.65 72.3753C1041.65 71.3625 1041.45 70.5962 1041.03 70.0765C1040.63 69.5434 1040.07 69.2769 1039.33 69.2769C1038.87 69.2769 1038.45 69.4035 1038.09 69.6567C1037.75 69.8966 1037.47 70.2497 1037.28 70.7161C1037.08 71.1693 1036.98 71.7223 1036.98 72.3753C1036.98 73.015 1037.07 73.5681 1037.26 74.0345C1037.44 74.5009 1037.71 74.8607 1038.05 75.1139C1038.41 75.3538 1038.83 75.4738 1039.29 75.4738Z" fill="#FFFBFB"/>
<path d="M1021.7 81.5707V67.3778H1024.16L1024.34 70.5562L1024 70.1964C1024.12 69.61 1024.34 69.0903 1024.66 68.6372C1025 68.1841 1025.42 67.8309 1025.92 67.5777C1026.43 67.3112 1026.99 67.1779 1027.62 67.1779C1028.43 67.1779 1029.16 67.3845 1029.8 67.7976C1030.44 68.2107 1030.94 68.8038 1031.3 69.5767C1031.67 70.3363 1031.86 71.2625 1031.86 72.3553C1031.86 73.4481 1031.67 74.3876 1031.3 75.1739C1030.93 75.9469 1030.41 76.5399 1029.76 76.953C1029.12 77.3662 1028.39 77.5727 1027.56 77.5727C1026.68 77.5727 1025.95 77.3262 1025.36 76.8331C1024.79 76.34 1024.4 75.7203 1024.18 74.974L1024.44 74.5542V81.5707H1021.7ZM1026.76 75.4738C1027.49 75.4738 1028.07 75.2139 1028.48 74.6942C1028.91 74.1611 1029.12 73.3881 1029.12 72.3753C1029.12 71.3625 1028.91 70.5962 1028.5 70.0765C1028.1 69.5434 1027.53 69.2769 1026.8 69.2769C1026.33 69.2769 1025.92 69.4035 1025.56 69.6567C1025.22 69.8966 1024.94 70.2497 1024.74 70.7161C1024.54 71.1693 1024.44 71.7223 1024.44 72.3753C1024.44 73.015 1024.54 73.5681 1024.72 74.0345C1024.91 74.5009 1025.18 74.8607 1025.52 75.1139C1025.88 75.3538 1026.29 75.4738 1026.76 75.4738Z" fill="#FFFBFB"/>
<path d="M1020.03 77.3728H1017.17L1016.07 74.1544H1011.01L1009.91 77.3728H1007.09L1011.91 64.1794H1015.21L1020.03 77.3728ZM1011.63 72.1154H1015.45L1013.53 66.3583L1011.63 72.1154Z" fill="#FFFBFB"/>
<path d="M993.994 77.5727C993.167 77.5727 992.428 77.3661 991.775 76.953C991.135 76.5399 990.629 75.9469 990.256 75.1739C989.896 74.401 989.716 73.4748 989.716 72.3953C989.716 71.2892 989.909 70.3497 990.296 69.5767C990.682 68.7904 991.202 68.1974 991.855 67.7976C992.521 67.3845 993.267 67.1779 994.094 67.1779C994.973 67.1779 995.7 67.4311 996.273 67.9375C996.846 68.4439 997.219 69.097 997.392 69.8966L997.132 70.2164V63H999.871V77.3728H997.412L997.232 74.3343L997.572 74.4943C997.479 75.1206 997.265 75.667 996.932 76.1334C996.599 76.5865 996.179 76.9397 995.673 77.1929C995.166 77.4461 994.607 77.5727 993.994 77.5727ZM994.793 75.4738C995.273 75.4738 995.686 75.3538 996.033 75.1139C996.379 74.8607 996.646 74.4943 996.832 74.0145C997.032 73.5347 997.132 72.9617 997.132 72.2954C997.132 71.6557 997.039 71.1159 996.852 70.6762C996.666 70.2231 996.399 69.8766 996.053 69.6367C995.706 69.3968 995.3 69.2769 994.833 69.2769C994.087 69.2769 993.501 69.5434 993.074 70.0765C992.661 70.5962 992.454 71.3625 992.454 72.3753C992.454 73.3881 992.661 74.1611 993.074 74.6941C993.487 75.2139 994.06 75.4738 994.793 75.4738Z" fill="#FFFBFB"/>
<path d="M984.473 70.996C984.473 70.423 984.307 69.9765 983.973 69.6567C983.654 69.3368 983.227 69.1769 982.694 69.1769C982.201 69.1769 981.768 69.3035 981.395 69.5567C981.022 69.8099 980.748 70.2297 980.575 70.8161L978.236 70.0965C978.463 69.2169 978.956 68.5106 979.716 67.9775C980.488 67.4445 981.521 67.1779 982.814 67.1779C983.694 67.1779 984.46 67.3178 985.113 67.5977C985.766 67.8642 986.272 68.2707 986.632 68.8171C987.005 69.3635 987.192 70.0498 987.192 70.8761V74.934C987.192 75.4405 987.432 75.6937 987.911 75.6937C988.138 75.6937 988.351 75.6603 988.551 75.5937L988.391 77.2929C988.045 77.4661 987.612 77.5527 987.092 77.5527C986.625 77.5527 986.206 77.4728 985.832 77.3128C985.459 77.1529 985.166 76.913 984.953 76.5932C984.74 76.26 984.633 75.8469 984.633 75.3538V75.2739L985.113 75.1939C985.033 75.7003 984.813 76.1334 984.453 76.4933C984.093 76.8398 983.654 77.1063 983.134 77.2929C982.627 77.4794 982.101 77.5727 981.555 77.5727C980.875 77.5727 980.289 77.4728 979.796 77.2729C979.302 77.0596 978.923 76.7531 978.656 76.3533C978.39 75.9535 978.256 75.4604 978.256 74.8741C978.256 74.1278 978.496 73.5214 978.976 73.055C979.456 72.5752 980.142 72.2487 981.035 72.0755L984.793 71.3158L984.773 73.015L982.374 73.4948C981.921 73.588 981.575 73.7146 981.335 73.8746C981.108 74.0212 980.995 74.2677 980.995 74.6142C980.995 74.9474 981.115 75.2006 981.355 75.3738C981.608 75.5471 981.908 75.6337 982.254 75.6337C982.534 75.6337 982.807 75.6004 983.074 75.5337C983.34 75.4671 983.58 75.3605 983.794 75.2139C984.007 75.0673 984.173 74.8674 984.293 74.6142C984.413 74.361 984.473 74.0545 984.473 73.6947V70.996Z" fill="#FFFBFB"/>
<path d="M971.426 67.1779C972.438 67.1779 973.325 67.3845 974.084 67.7976C974.857 68.2107 975.457 68.8038 975.883 69.5767C976.323 70.3497 976.543 71.2825 976.543 72.3753C976.543 73.4548 976.323 74.3876 975.883 75.1739C975.457 75.9469 974.857 76.5399 974.084 76.953C973.325 77.3662 972.438 77.5727 971.426 77.5727C970.426 77.5727 969.54 77.3662 968.767 76.953C967.994 76.5399 967.388 75.9469 966.948 75.1739C966.521 74.3876 966.308 73.4548 966.308 72.3753C966.308 71.2825 966.521 70.3497 966.948 69.5767C967.388 68.8038 967.994 68.2107 968.767 67.7976C969.54 67.3845 970.426 67.1779 971.426 67.1779ZM971.426 69.2169C970.919 69.2169 970.486 69.3368 970.126 69.5767C969.78 69.8033 969.513 70.1498 969.327 70.6162C969.14 71.0826 969.047 71.669 969.047 72.3753C969.047 73.0816 969.14 73.668 969.327 74.1344C969.513 74.6009 969.78 74.954 970.126 75.1939C970.486 75.4205 970.919 75.5337 971.426 75.5337C971.919 75.5337 972.339 75.4205 972.685 75.1939C973.045 74.954 973.318 74.6009 973.505 74.1344C973.691 73.668 973.784 73.0816 973.784 72.3753C973.784 71.669 973.691 71.0826 973.505 70.6162C973.318 70.1498 973.045 69.8033 972.685 69.5767C972.339 69.3368 971.919 69.2169 971.426 69.2169Z" fill="#FFFBFB"/>
<path d="M963.183 63V74.2943C963.183 74.7608 963.263 75.0873 963.423 75.2739C963.583 75.4604 963.849 75.5537 964.223 75.5537C964.449 75.5537 964.636 75.5404 964.782 75.5137C964.929 75.4738 965.115 75.4205 965.342 75.3538L965.102 77.1529C964.876 77.2862 964.589 77.3861 964.243 77.4528C963.909 77.5327 963.576 77.5727 963.243 77.5727C962.27 77.5727 961.557 77.3395 961.104 76.8731C960.664 76.3933 960.444 75.6337 960.444 74.5942V63H963.183Z" fill="#FFFBFB"/>
<path d="M948.108 77.3728V67.3778H950.567L950.726 70.3763L950.387 70.0565C950.547 69.4035 950.8 68.8637 951.146 68.4373C951.493 68.0108 951.913 67.6977 952.406 67.4978C952.912 67.2845 953.465 67.1779 954.065 67.1779C954.758 67.1779 955.371 67.3112 955.904 67.5777C956.45 67.8443 956.877 68.2507 957.183 68.7971C957.503 69.3302 957.663 70.0032 957.663 70.8161V77.3728H954.924V71.5957C954.924 70.7428 954.758 70.1564 954.425 69.8366C954.091 69.5034 953.658 69.3368 953.125 69.3368C952.752 69.3368 952.386 69.4301 952.026 69.6167C951.679 69.7899 951.393 70.0765 951.166 70.4763C950.953 70.8761 950.846 71.4091 950.846 72.0755V77.3728H948.108Z" fill="#FFFBFB"/>
<path d="M943.491 67.3778H946.409L943.211 77.3728H940.052L937.873 70.5762L935.774 77.3728H932.616L929.418 67.3778H932.336L934.335 75.034L936.554 67.3778H939.273L941.512 75.034L943.491 67.3778Z" fill="#FFFBFB"/>
<path d="M923.461 67.1779C924.474 67.1779 925.36 67.3845 926.12 67.7976C926.893 68.2107 927.493 68.8038 927.919 69.5767C928.359 70.3497 928.579 71.2825 928.579 72.3753C928.579 73.4548 928.359 74.3876 927.919 75.1739C927.493 75.9469 926.893 76.5399 926.12 76.953C925.36 77.3662 924.474 77.5727 923.461 77.5727C922.462 77.5727 921.576 77.3662 920.803 76.953C920.03 76.5399 919.423 75.9469 918.984 75.1739C918.557 74.3876 918.344 73.4548 918.344 72.3753C918.344 71.2825 918.557 70.3497 918.984 69.5767C919.423 68.8038 920.03 68.2107 920.803 67.7976C921.576 67.3845 922.462 67.1779 923.461 67.1779ZM923.461 69.2169C922.955 69.2169 922.522 69.3368 922.162 69.5767C921.815 69.8033 921.549 70.1498 921.362 70.6162C921.176 71.0826 921.083 71.669 921.083 72.3753C921.083 73.0816 921.176 73.668 921.362 74.1344C921.549 74.6009 921.815 74.954 922.162 75.1939C922.522 75.4205 922.955 75.5337 923.461 75.5337C923.954 75.5337 924.374 75.4205 924.721 75.1939C925.081 74.954 925.354 74.6009 925.54 74.1344C925.727 73.668 925.82 73.0816 925.82 72.3753C925.82 71.669 925.727 71.0826 925.54 70.6162C925.354 70.1498 925.081 69.8033 924.721 69.5767C924.374 69.3368 923.954 69.2169 923.461 69.2169Z" fill="#FFFBFB"/>
<path d="M909.913 64.1794C911.979 64.1794 913.578 64.7525 914.711 65.8986C915.843 67.0313 916.41 68.6572 916.41 70.7761C916.41 72.8817 915.843 74.5076 914.711 75.6537C913.578 76.7998 911.979 77.3728 909.913 77.3728H904.816V64.1794H909.913ZM909.773 75.1739C911.026 75.1739 911.965 74.8008 912.592 74.0545C913.231 73.2949 913.551 72.2021 913.551 70.7761C913.551 69.3502 913.231 68.264 912.592 67.5177C911.965 66.7581 911.026 66.3783 909.773 66.3783H907.574V75.1739H909.773Z" fill="#FFFBFB"/>
<path d="M1219.61 81.1966C1218.56 81.1966 1217.64 80.9901 1216.85 80.577C1216.08 80.1638 1215.48 79.5708 1215.05 78.7979C1214.63 78.0249 1214.41 77.092 1214.41 75.9993C1214.41 74.9065 1214.63 73.9736 1215.05 73.2006C1215.48 72.4277 1216.07 71.8347 1216.83 71.4215C1217.6 71.0084 1218.48 70.8018 1219.47 70.8018C1220.48 70.8018 1221.34 71.0084 1222.05 71.4215C1222.75 71.8213 1223.29 72.3744 1223.67 73.0807C1224.04 73.7737 1224.23 74.5666 1224.23 75.4595C1224.23 75.7261 1224.22 75.9793 1224.21 76.2191C1224.19 76.459 1224.17 76.6722 1224.15 76.8588H1216.17V74.9598H1222.95L1221.63 75.4395C1221.63 74.6 1221.44 73.9536 1221.05 73.5005C1220.68 73.0474 1220.14 72.8208 1219.45 72.8208C1218.94 72.8208 1218.5 72.9408 1218.13 73.1807C1217.77 73.4205 1217.5 73.7804 1217.31 74.2601C1217.12 74.7266 1217.03 75.3196 1217.03 76.0392C1217.03 76.7455 1217.13 77.3319 1217.33 77.7983C1217.54 78.2515 1217.84 78.5913 1218.21 78.8178C1218.6 79.0444 1219.06 79.1577 1219.59 79.1577C1220.18 79.1577 1220.65 79.0444 1221.01 78.8178C1221.37 78.5913 1221.65 78.2781 1221.85 77.8783L1224.03 78.7179C1223.81 79.2376 1223.49 79.6841 1223.05 80.0572C1222.62 80.4304 1222.11 80.7169 1221.51 80.9168C1220.92 81.1034 1220.29 81.1966 1219.61 81.1966Z" fill="black"/>
<path d="M1206.73 80.9967V71.0018H1209.11L1209.29 72.9608C1209.56 72.2678 1209.95 71.7347 1210.45 71.3616C1210.97 70.9884 1211.62 70.8018 1212.39 70.8018C1212.62 70.8018 1212.82 70.8218 1213.01 70.8618C1213.2 70.9018 1213.35 70.9551 1213.47 71.0217L1213.15 73.3206C1213.02 73.2673 1212.85 73.2273 1212.65 73.2006C1212.46 73.174 1212.22 73.1607 1211.91 73.1607C1211.51 73.1607 1211.13 73.2606 1210.75 73.4605C1210.38 73.6471 1210.07 73.9403 1209.83 74.3401C1209.59 74.7266 1209.47 75.2196 1209.47 75.8193V80.9967H1206.73Z" fill="black"/>
<path d="M1199.32 70.8018C1200.34 70.8018 1201.22 71.0084 1201.98 71.4215C1202.76 71.8347 1203.36 72.4277 1203.78 73.2006C1204.22 73.9736 1204.44 74.9065 1204.44 75.9993C1204.44 77.0787 1204.22 78.0116 1203.78 78.7979C1203.36 79.5708 1202.76 80.1638 1201.98 80.577C1201.22 80.9901 1200.34 81.1966 1199.32 81.1966C1198.33 81.1966 1197.44 80.9901 1196.67 80.577C1195.89 80.1638 1195.29 79.5708 1194.85 78.7979C1194.42 78.0116 1194.21 77.0787 1194.21 75.9993C1194.21 74.9065 1194.42 73.9736 1194.85 73.2006C1195.29 72.4277 1195.89 71.8347 1196.67 71.4215C1197.44 71.0084 1198.33 70.8018 1199.32 70.8018ZM1199.32 72.8408C1198.82 72.8408 1198.39 72.9608 1198.03 73.2006C1197.68 73.4272 1197.41 73.7737 1197.23 74.2401C1197.04 74.7066 1196.95 75.2929 1196.95 75.9993C1196.95 76.7056 1197.04 77.2919 1197.23 77.7584C1197.41 78.2248 1197.68 78.578 1198.03 78.8178C1198.39 79.0444 1198.82 79.1577 1199.32 79.1577C1199.82 79.1577 1200.24 79.0444 1200.58 78.8178C1200.94 78.578 1201.22 78.2248 1201.4 77.7584C1201.59 77.2919 1201.68 76.7056 1201.68 75.9993C1201.68 75.2929 1201.59 74.7066 1201.4 74.2401C1201.22 73.7737 1200.94 73.4272 1200.58 73.2006C1200.24 72.9608 1199.82 72.8408 1199.32 72.8408Z" fill="black"/>
<path d="M1191.71 67.8033V80.9967H1189.21V74.1202L1189.35 70.2621H1189.31L1185.66 80.9967H1183.4L1179.76 70.2621H1179.72L1179.86 74.1202V80.9967H1177.36V67.8033H1181.36L1183.74 74.9997L1184.58 77.9783H1184.62L1185.48 75.0197L1187.84 67.8033H1191.71Z" fill="black"/>
<path d="M1158.59 80.9967V71.0018H1161.05L1161.21 74.0003L1160.87 73.6804C1161.03 73.0274 1161.29 72.4877 1161.63 72.0612C1161.98 71.6348 1162.4 71.3216 1162.89 71.1217C1163.4 70.9085 1163.95 70.8018 1164.55 70.8018C1165.24 70.8018 1165.86 70.9351 1166.39 71.2017C1166.94 71.4682 1167.36 71.8746 1167.67 72.421C1167.99 72.9541 1168.15 73.6271 1168.15 74.44V80.9967H1165.41V75.2196C1165.41 74.3667 1165.24 73.7804 1164.91 73.4605C1164.58 73.1274 1164.14 72.9608 1163.61 72.9608C1163.24 72.9608 1162.87 73.0541 1162.51 73.2406C1162.17 73.4139 1161.88 73.7004 1161.65 74.1002C1161.44 74.5 1161.33 75.0331 1161.33 75.6994V80.9967H1158.59Z" fill="black"/>
<path d="M1150.16 80.9967V71.0018H1152.54L1152.72 72.9608C1152.99 72.2678 1153.37 71.7347 1153.88 71.3616C1154.4 70.9884 1155.04 70.8018 1155.82 70.8018C1156.04 70.8018 1156.25 70.8218 1156.44 70.8618C1156.62 70.9018 1156.78 70.9551 1156.9 71.0217L1156.58 73.3206C1156.44 73.2673 1156.28 73.2273 1156.08 73.2006C1155.89 73.174 1155.64 73.1607 1155.34 73.1607C1154.94 73.1607 1154.55 73.2606 1154.18 73.4605C1153.81 73.6471 1153.5 73.9403 1153.26 74.3401C1153.02 74.7266 1152.9 75.2196 1152.9 75.8193V80.9967H1150.16Z" fill="black"/>
<path d="M1144.38 74.6199C1144.38 74.0469 1144.21 73.6005 1143.88 73.2806C1143.56 72.9608 1143.13 72.8009 1142.6 72.8009C1142.11 72.8009 1141.67 72.9275 1141.3 73.1807C1140.93 73.4339 1140.65 73.8537 1140.48 74.44L1138.14 73.7204C1138.37 72.8408 1138.86 72.1345 1139.62 71.6014C1140.39 71.0684 1141.43 70.8018 1142.72 70.8018C1143.6 70.8018 1144.37 70.9418 1145.02 71.2216C1145.67 71.4882 1146.18 71.8946 1146.54 72.441C1146.91 72.9874 1147.1 73.6737 1147.1 74.5V78.558C1147.1 79.0644 1147.34 79.3176 1147.82 79.3176C1148.04 79.3176 1148.26 79.2843 1148.46 79.2176L1148.3 80.9168C1147.95 81.09 1147.52 81.1767 1147 81.1767C1146.53 81.1767 1146.11 81.0967 1145.74 80.9368C1145.37 80.7769 1145.07 80.537 1144.86 80.2171C1144.65 79.884 1144.54 79.4708 1144.54 78.9778V78.8978L1145.02 78.8178C1144.94 79.3243 1144.72 79.7574 1144.36 80.1172C1144 80.4637 1143.56 80.7302 1143.04 80.9168C1142.53 81.1034 1142.01 81.1966 1141.46 81.1966C1140.78 81.1966 1140.19 81.0967 1139.7 80.8968C1139.21 80.6836 1138.83 80.3771 1138.56 79.9773C1138.3 79.5775 1138.16 79.0844 1138.16 78.498C1138.16 77.7517 1138.4 77.1453 1138.88 76.6789C1139.36 76.1992 1140.05 75.8726 1140.94 75.6994L1144.7 74.9398L1144.68 76.6389L1142.28 77.1187C1141.83 77.212 1141.48 77.3386 1141.24 77.4985C1141.01 77.6451 1140.9 77.8916 1140.9 78.2381C1140.9 78.5713 1141.02 78.8245 1141.26 78.9977C1141.51 79.171 1141.81 79.2576 1142.16 79.2576C1142.44 79.2576 1142.71 79.2243 1142.98 79.1577C1143.25 79.091 1143.49 78.9844 1143.7 78.8378C1143.91 78.6912 1144.08 78.4913 1144.2 78.2381C1144.32 77.9849 1144.38 77.6784 1144.38 77.3186V74.6199Z" fill="black"/>
<path d="M1131.74 81.1966C1130.69 81.1966 1129.77 80.9901 1128.98 80.577C1128.21 80.1638 1127.61 79.5708 1127.19 78.7979C1126.76 78.0249 1126.55 77.092 1126.55 75.9993C1126.55 74.9065 1126.76 73.9736 1127.19 73.2006C1127.61 72.4277 1128.21 71.8347 1128.96 71.4215C1129.74 71.0084 1130.62 70.8018 1131.6 70.8018C1132.62 70.8018 1133.48 71.0084 1134.18 71.4215C1134.89 71.8213 1135.43 72.3744 1135.8 73.0807C1136.17 73.7737 1136.36 74.5666 1136.36 75.4595C1136.36 75.7261 1136.35 75.9793 1136.34 76.2191C1136.33 76.459 1136.31 76.6722 1136.28 76.8588H1128.31V74.9598H1135.08L1133.76 75.4395C1133.76 74.6 1133.57 73.9536 1133.18 73.5005C1132.81 73.0474 1132.28 72.8208 1131.58 72.8208C1131.08 72.8208 1130.64 72.9408 1130.26 73.1807C1129.9 73.4205 1129.63 73.7804 1129.44 74.2601C1129.26 74.7266 1129.16 75.3196 1129.16 76.0392C1129.16 76.7455 1129.26 77.3319 1129.46 77.7983C1129.68 78.2515 1129.97 78.5913 1130.34 78.8178C1130.73 79.0444 1131.19 79.1577 1131.72 79.1577C1132.31 79.1577 1132.78 79.0444 1133.14 78.8178C1133.5 78.5913 1133.78 78.2781 1133.98 77.8783L1136.16 78.7179C1135.95 79.2376 1135.62 79.6841 1135.18 80.0572C1134.76 80.4304 1134.24 80.7169 1133.64 80.9168C1133.06 81.1034 1132.42 81.1966 1131.74 81.1966Z" fill="black"/>
<path d="M1118.31 78.7779H1125.27V80.9967H1115.56V67.8033H1118.31V78.7779Z" fill="black"/>
</svg>
