<svg width="227" height="65" viewBox="0 0 227 65" fill="none" xmlns="http://www.w3.org/2000/svg">
<path d="M218.022 65H8.76264C4.16103 65 0.392273 61.3417 0.392273 56.875V8.125C0.392273 3.65829 4.16103 4.76837e-06 8.76264 4.76837e-06H218.022C222.624 4.76837e-06 226.392 3.65829 226.392 8.125V56.875C226.392 61.3417 222.624 65 218.022 65Z" fill="black"/>
<path d="M218.022 1.30203C221.897 1.30203 225.051 4.36313 225.051 8.125V56.875C225.051 60.6369 221.897 63.698 218.022 63.698H8.76264C4.88716 63.698 1.73362 60.6369 1.73362 56.875V8.125C1.73362 4.36313 4.88716 1.30203 8.76264 1.30203H218.022ZM218.022 4.76837e-06H8.76264C4.16103 4.76837e-06 0.392273 3.65829 0.392273 8.125V56.875C0.392273 61.3417 4.16103 65 8.76264 65H218.022C222.624 65 226.392 61.3417 226.392 56.875V8.125C226.392 3.65829 222.624 4.76837e-06 218.022 4.76837e-06Z" fill="#A6A6A6"/>
<path d="M17.8612 12.2503C17.3695 12.75 17.0849 13.528 17.0849 14.5355V50.4723C17.0849 51.4798 17.3695 52.2578 17.8612 52.7575L17.9826 52.8672L38.7286 32.7375V32.2622L17.9826 12.1325L17.8612 12.2503Z" fill="url(#paint0_linear_5_1014)"/>
<path d="M45.6362 39.4509L38.7285 32.7376V32.2623L45.6445 25.5491L45.7994 25.6364L53.9898 30.16C56.3272 31.4437 56.3272 33.5562 53.9898 34.8481L45.7994 39.3636L45.6362 39.4509Z" fill="url(#paint1_linear_5_1014)"/>
<path d="M45.7994 39.3635L38.7286 32.4999L17.8612 52.7576C18.6376 53.5498 19.9036 53.6452 21.3433 52.8531L45.7994 39.3635Z" fill="url(#paint2_linear_5_1014)"/>
<path d="M45.7994 25.6364L21.3433 12.1469C19.9036 11.3628 18.6376 11.4583 17.8612 12.2505L38.7286 32.5L45.7994 25.6364Z" fill="url(#paint3_linear_5_1014)"/>
<path d="M79.7727 16.6462C79.7727 18.0031 79.3542 19.0898 78.5297 19.9003C77.5817 20.8611 76.3471 21.3445 74.8342 21.3445C73.3882 21.3445 72.1535 20.853 71.1407 19.884C70.1258 18.9009 69.6194 17.6944 69.6194 16.2501C69.6194 14.8059 70.1258 13.5994 71.1407 12.6244C72.1535 11.6473 73.3882 11.1558 74.8342 11.1558C75.554 11.1558 76.2404 11.3 76.8954 11.5681C77.5482 11.8383 78.0798 12.2039 78.4648 12.6548L77.5901 13.512C76.9184 12.7422 76.0039 12.3623 74.8342 12.3623C73.7795 12.3623 72.865 12.7198 72.0887 13.4409C71.3207 14.164 70.9357 15.1005 70.9357 16.2501C70.9357 17.3998 71.3207 18.3444 72.0887 19.0675C72.865 19.7804 73.7795 20.1461 74.8342 20.1461C75.9537 20.1461 76.8954 19.7805 77.6382 19.0594C78.1279 18.582 78.4062 17.9239 78.4795 17.083H74.8342V15.9089H79.6973C79.7559 16.1628 79.7727 16.4086 79.7727 16.6462Z" fill="white" stroke="white" stroke-width="0.16" stroke-miterlimit="10"/>
<path d="M87.4881 12.5756H82.9199V15.6631H87.0382V16.8371H82.9199V19.9246H87.4881V21.121H81.6267V11.3792H87.4881V12.5756Z" fill="white" stroke="white" stroke-width="0.16" stroke-miterlimit="10"/>
<path d="M92.9329 21.121H91.6397V12.5756H88.8377V11.3792H95.737V12.5756H92.9329V21.121Z" fill="white" stroke="white" stroke-width="0.16" stroke-miterlimit="10"/>
<path d="M100.73 21.121V11.3792H102.021V21.121H100.73Z" fill="white" stroke="white" stroke-width="0.16" stroke-miterlimit="10"/>
<path d="M107.744 21.121H106.462V12.5756H103.649V11.3792H110.557V12.5756H107.744V21.121Z" fill="white" stroke="white" stroke-width="0.16" stroke-miterlimit="10"/>
<path d="M123.619 19.8678C122.629 20.853 121.403 21.3445 119.94 21.3445C118.469 21.3445 117.243 20.853 116.253 19.8678C115.265 18.8847 114.773 17.6781 114.773 16.2501C114.773 14.8222 115.265 13.6156 116.253 12.6325C117.243 11.6473 118.469 11.1558 119.94 11.1558C121.394 11.1558 122.621 11.6473 123.61 12.6406C124.606 13.6319 125.098 14.8303 125.098 16.2501C125.098 17.6781 124.606 18.8847 123.619 19.8678ZM117.209 19.0512C117.954 19.7805 118.86 20.1461 119.94 20.1461C121.011 20.1461 121.926 19.7805 122.662 19.0512C123.405 18.322 123.782 17.3856 123.782 16.2501C123.782 15.1147 123.405 14.1783 122.662 13.449C121.926 12.7198 121.011 12.3542 119.94 12.3542C118.86 12.3542 117.954 12.7198 117.209 13.449C116.466 14.1783 116.09 15.1147 116.09 16.2501C116.09 17.3856 116.466 18.322 117.209 19.0512Z" fill="white" stroke="white" stroke-width="0.16" stroke-miterlimit="10"/>
<path d="M126.913 21.121V11.3792H128.482L133.362 18.9557H133.418L133.362 17.0829V11.3792H134.653V21.121H133.305L128.195 13.1707H128.139L128.195 15.0516V21.121H126.913Z" fill="white" stroke="white" stroke-width="0.16" stroke-miterlimit="10"/>
<path d="M114.455 35.3479C110.523 35.3479 107.311 38.2525 107.311 42.2602C107.311 46.2354 110.523 49.1705 114.455 49.1705C118.396 49.1705 121.608 46.2354 121.608 42.2602C121.608 38.2525 118.396 35.3479 114.455 35.3479ZM114.455 46.4486C112.298 46.4486 110.442 44.72 110.442 42.2602C110.442 39.7679 112.298 38.0697 114.455 38.0697C116.613 38.0697 118.477 39.7679 118.477 42.2602C118.477 44.72 116.613 46.4486 114.455 46.4486ZM98.8676 35.3479C94.9272 35.3479 91.7235 38.2525 91.7235 42.2602C91.7235 46.2354 94.9272 49.1705 98.8676 49.1705C102.806 49.1705 106.012 46.2354 106.012 42.2602C106.012 38.2525 102.806 35.3479 98.8676 35.3479ZM98.8676 46.4486C96.708 46.4486 94.8456 44.72 94.8456 42.2602C94.8456 39.7679 96.708 38.0697 98.8676 38.0697C101.025 38.0697 102.881 39.7679 102.881 42.2602C102.881 44.72 101.025 46.4486 98.8676 46.4486ZM80.3189 37.4664V40.4036H87.5446C87.3332 42.0449 86.7682 43.2514 85.9019 44.0924C84.8472 45.108 83.2045 46.2354 80.3189 46.2354C75.8721 46.2354 72.39 42.7518 72.39 38.4354C72.39 34.119 75.8721 30.6354 80.3189 30.6354C82.7232 30.6354 84.4726 31.5474 85.7638 32.7296L87.8961 30.6597C86.0902 28.986 83.6879 27.7002 80.3189 27.7002C74.221 27.7002 69.0963 32.5163 69.0963 38.4354C69.0963 44.3544 74.221 49.1705 80.3189 49.1705C83.6147 49.1705 86.0902 48.1224 88.0363 46.1561C90.0306 44.2204 90.6521 41.4985 90.6521 39.3007C90.6521 38.6182 90.5935 37.9905 90.4888 37.4664H80.3189ZM156.167 39.7435C155.579 38.1977 153.765 35.3479 150.069 35.3479C146.407 35.3479 143.358 38.1489 143.358 42.2602C143.358 46.1318 146.376 49.1705 150.421 49.1705C153.691 49.1705 155.579 47.2347 156.355 46.1074L153.928 44.5372C153.118 45.6869 152.015 46.4486 150.421 46.4486C148.837 46.4486 147.7 45.7438 146.972 44.3544L156.495 40.5296L156.167 39.7435ZM146.457 42.0449C146.376 39.3799 148.59 38.0149 150.176 38.0149C151.419 38.0149 152.474 38.6182 152.825 39.4814L146.457 42.0449ZM138.717 48.75H141.847V28.4375H138.717V48.75ZM133.59 36.8875H133.485C132.782 36.0791 131.441 35.3479 129.742 35.3479C126.176 35.3479 122.916 38.3866 122.916 42.2825C122.916 46.1561 126.176 49.1705 129.742 49.1705C131.441 49.1705 132.782 48.4332 133.485 47.6004H133.59V48.5916C133.59 51.2343 132.136 52.6541 129.79 52.6541C127.877 52.6541 126.691 51.3135 126.201 50.1861L123.479 51.2891C124.263 53.1213 126.341 55.376 129.79 55.376C133.46 55.376 136.557 53.2797 136.557 48.1793V35.7683H133.59V36.8875ZM130.01 46.4486C127.852 46.4486 126.046 44.6957 126.046 42.2825C126.046 39.8471 127.852 38.0697 130.01 38.0697C132.136 38.0697 133.812 39.8471 133.812 42.2825C133.812 44.6957 132.136 46.4486 130.01 46.4486ZM170.823 28.4375H163.336V48.75H166.458V41.0536H170.823C174.291 41.0536 177.691 38.6182 177.691 34.7446C177.691 30.873 174.282 28.4375 170.823 28.4375ZM170.905 38.2282H166.458V31.263H170.905C173.236 31.263 174.567 33.1419 174.567 34.7446C174.567 36.3168 173.236 38.2282 170.905 38.2282ZM190.205 35.3093C187.949 35.3093 185.603 36.2761 184.639 38.4191L187.409 39.5464C188.006 38.4191 189.102 38.0535 190.262 38.0535C191.881 38.0535 193.524 38.998 193.549 40.6657V40.8789C192.984 40.5621 191.774 40.0929 190.287 40.0929C187.303 40.0929 184.262 41.6874 184.262 44.6632C184.262 47.385 186.706 49.138 189.454 49.138C191.555 49.138 192.714 48.2179 193.442 47.1474H193.549V48.7175H196.564V40.9257C196.564 37.3243 193.794 35.3093 190.205 35.3093ZM189.828 46.4405C188.807 46.4405 187.384 45.9489 187.384 44.72C187.384 43.1479 189.159 42.5446 190.695 42.5446C192.07 42.5446 192.714 42.8391 193.549 43.2271C193.304 45.108 191.636 46.4405 189.828 46.4405ZM207.551 35.7541L203.962 44.5596H203.855L200.145 35.7541H196.778L202.353 48.0594L199.172 54.9068H202.434L211.024 35.7541H207.551ZM179.407 48.75H182.538V28.4375H179.407V48.75Z" fill="white"/>
<defs>
<linearGradient id="paint0_linear_5_1014" x1="36.8866" y1="50.8466" x2="9.62725" y2="22.764" gradientUnits="userSpaceOnUse">
<stop stop-color="#00A0FF"/>
<stop offset="0.0066" stop-color="#00A1FF"/>
<stop offset="0.2601" stop-color="#00BEFF"/>
<stop offset="0.5122" stop-color="#00D2FF"/>
<stop offset="0.7604" stop-color="#00DFFF"/>
<stop offset="1" stop-color="#00E3FF"/>
</linearGradient>
<linearGradient id="paint1_linear_5_1014" x1="57.0335" y1="32.4977" x2="16.5261" y2="32.4977" gradientUnits="userSpaceOnUse">
<stop stop-color="#FFE000"/>
<stop offset="0.4087" stop-color="#FFBD00"/>
<stop offset="0.7754" stop-color="#FFA500"/>
<stop offset="1" stop-color="#FF9C00"/>
</linearGradient>
<linearGradient id="paint2_linear_5_1014" x1="41.9545" y1="28.7688" x2="4.98864" y2="-9.31345" gradientUnits="userSpaceOnUse">
<stop stop-color="#FF3A44"/>
<stop offset="1" stop-color="#C31162"/>
</linearGradient>
<linearGradient id="paint3_linear_5_1014" x1="12.6085" y1="64.7137" x2="29.1154" y2="47.7084" gradientUnits="userSpaceOnUse">
<stop stop-color="#32A071"/>
<stop offset="0.0685" stop-color="#2DA771"/>
<stop offset="0.4762" stop-color="#15CF74"/>
<stop offset="0.8009" stop-color="#06E775"/>
<stop offset="1" stop-color="#00F076"/>
</linearGradient>
</defs>
</svg>
