<svg width="227" height="66" viewBox="0 0 227 66" fill="none" xmlns="http://www.w3.org/2000/svg">
<path d="M218.357 65.67H9.09763C4.49602 65.67 0.727264 62.0117 0.727264 57.545V8.795C0.727264 4.32828 4.49602 0.670003 9.09763 0.670003H218.357C222.958 0.670003 226.727 4.32828 226.727 8.795V57.545C226.727 62.0117 222.958 65.67 218.357 65.67Z" fill="black"/>
<path d="M218.357 1.97203C222.232 1.97203 225.386 5.03313 225.386 8.795V57.545C225.386 61.3069 222.232 64.368 218.357 64.368H9.09763C5.22215 64.368 2.06862 61.3069 2.06862 57.545V8.795C2.06862 5.03313 5.22215 1.97203 9.09763 1.97203H218.357ZM218.357 0.670003H9.09763C4.49602 0.670003 0.727264 4.32828 0.727264 8.795V57.545C0.727264 62.0117 4.49602 65.67 9.09763 65.67H218.357C222.958 65.67 226.727 62.0117 226.727 57.545V8.795C226.727 4.32828 222.958 0.670003 218.357 0.670003Z" fill="#A6A6A6"/>
<path d="M18.1962 12.9204C17.7045 13.4201 17.4199 14.1981 17.4199 15.2056V51.1425C17.4199 52.15 17.7045 52.9279 18.1962 53.4276L18.3176 53.5373L39.0636 33.4076V32.9323L18.3176 12.8026L18.1962 12.9204Z" fill="url(#paint0_linear_3_119)"/>
<path d="M45.9712 40.1209L39.0635 33.4076V32.9323L45.9795 26.219L46.1344 26.3064L54.3248 30.83C56.6622 32.1137 56.6622 34.2262 54.3248 35.5181L46.1344 40.0336L45.9712 40.1209Z" fill="url(#paint1_linear_3_119)"/>
<path d="M46.1344 40.0336L39.0636 33.17L18.1962 53.4276C18.9726 54.2198 20.2386 54.3153 21.6783 53.5231L46.1344 40.0336Z" fill="url(#paint2_linear_3_119)"/>
<path d="M46.1344 26.3064L21.6783 12.8169C20.2386 12.0328 18.9726 12.1283 18.1962 12.9205L39.0636 33.17L46.1344 26.3064Z" fill="url(#paint3_linear_3_119)"/>
<path d="M80.1077 17.3161C80.1077 18.673 79.6891 19.7597 78.8647 20.5702C77.9167 21.5309 76.6821 22.0144 75.1691 22.0144C73.7232 22.0144 72.4885 21.5228 71.4757 20.5539C70.4608 19.5708 69.9544 18.3642 69.9544 16.92C69.9544 15.4758 70.4608 14.2692 71.4757 13.2942C72.4885 12.3172 73.7232 11.8256 75.1691 11.8256C75.889 11.8256 76.5754 11.9698 77.2303 12.238C77.8832 12.5081 78.4148 12.8737 78.7998 13.3247L77.9251 14.1819C77.2534 13.412 76.3389 13.0322 75.1691 13.0322C74.1145 13.0322 73.2 13.3897 72.4237 14.1108C71.6557 14.8339 71.2706 15.7703 71.2706 16.92C71.2706 18.0697 71.6557 19.0142 72.4237 19.7373C73.2 20.4503 74.1145 20.8159 75.1691 20.8159C76.2887 20.8159 77.2304 20.4503 77.9732 19.7292C78.4629 19.2519 78.7412 18.5937 78.8144 17.7528H75.1691V16.5787H80.0323C80.0909 16.8327 80.1077 17.0784 80.1077 17.3161Z" fill="white" stroke="white" stroke-width="0.16" stroke-miterlimit="10"/>
<path d="M87.823 13.2455H83.2549V16.333H87.3731V17.507H83.2549V20.5945H87.823V21.7909H81.9617V12.0491H87.823V13.2455Z" fill="white" stroke="white" stroke-width="0.16" stroke-miterlimit="10"/>
<path d="M93.2679 21.7909H91.9747V13.2455H89.1727V12.0491H96.072V13.2455H93.2679V21.7909Z" fill="white" stroke="white" stroke-width="0.16" stroke-miterlimit="10"/>
<path d="M101.065 21.7909V12.0491H102.356V21.7909H101.065Z" fill="white" stroke="white" stroke-width="0.16" stroke-miterlimit="10"/>
<path d="M108.079 21.7909H106.797V13.2455H103.984V12.0491H110.892V13.2455H108.079V21.7909Z" fill="white" stroke="white" stroke-width="0.16" stroke-miterlimit="10"/>
<path d="M123.954 20.5377C122.964 21.5228 121.738 22.0144 120.275 22.0144C118.804 22.0144 117.578 21.5228 116.588 20.5377C115.6 19.5545 115.108 18.348 115.108 16.92C115.108 15.492 115.6 14.2855 116.588 13.3023C117.578 12.3172 118.804 11.8256 120.275 11.8256C121.729 11.8256 122.956 12.3172 123.945 13.3105C124.941 14.3017 125.433 15.5002 125.433 16.92C125.433 18.348 124.941 19.5545 123.954 20.5377ZM117.544 19.7211C118.289 20.4503 119.195 20.8159 120.275 20.8159C121.346 20.8159 122.261 20.4503 122.997 19.7211C123.74 18.9919 124.117 18.0555 124.117 16.92C124.117 15.7845 123.74 14.8481 122.997 14.1189C122.261 13.3897 121.346 13.0241 120.275 13.0241C119.195 13.0241 118.289 13.3897 117.544 14.1189C116.801 14.8481 116.425 15.7845 116.425 16.92C116.425 18.0555 116.801 18.9919 117.544 19.7211Z" fill="white" stroke="white" stroke-width="0.16" stroke-miterlimit="10"/>
<path d="M127.247 21.7909V12.0491H128.817L133.697 19.6256H133.753L133.697 17.7528V12.0491H134.988V21.7909H133.64L128.53 13.8406H128.474L128.53 15.7216V21.7909H127.247Z" fill="white" stroke="white" stroke-width="0.16" stroke-miterlimit="10"/>
<path d="M114.79 36.0178C110.858 36.0178 107.646 38.9225 107.646 42.9302C107.646 46.9053 110.858 49.8405 114.79 49.8405C118.731 49.8405 121.943 46.9053 121.943 42.9302C121.943 38.9225 118.731 36.0178 114.79 36.0178ZM114.79 47.1186C112.633 47.1186 110.777 45.39 110.777 42.9302C110.777 40.4378 112.633 38.7397 114.79 38.7397C116.948 38.7397 118.812 40.4378 118.812 42.9302C118.812 45.39 116.948 47.1186 114.79 47.1186ZM99.2026 36.0178C95.2622 36.0178 92.0585 38.9225 92.0585 42.9302C92.0585 46.9053 95.2622 49.8405 99.2026 49.8405C103.141 49.8405 106.347 46.9053 106.347 42.9302C106.347 38.9225 103.141 36.0178 99.2026 36.0178ZM99.2026 47.1186C97.043 47.1186 95.1806 45.39 95.1806 42.9302C95.1806 40.4378 97.043 38.7397 99.2026 38.7397C101.36 38.7397 103.216 40.4378 103.216 42.9302C103.216 45.39 101.36 47.1186 99.2026 47.1186ZM80.6538 38.1364V41.0736H87.8796C87.6682 42.7149 87.1032 43.9214 86.2369 44.7624C85.1822 45.778 83.5395 46.9053 80.6538 46.9053C76.2071 46.9053 72.725 43.4217 72.725 39.1053C72.725 34.7889 76.2071 31.3053 80.6538 31.3053C83.0582 31.3053 84.8076 32.2174 86.0988 33.3996L88.2311 31.3297C86.4252 29.656 84.0229 28.3702 80.6538 28.3702C74.556 28.3702 69.4313 33.1863 69.4313 39.1053C69.4313 45.0244 74.556 49.8405 80.6538 49.8405C83.9497 49.8405 86.4252 48.7924 88.3713 46.8261C90.3656 44.8903 90.9871 42.1685 90.9871 39.9706C90.9871 39.2881 90.9285 38.6605 90.8238 38.1364H80.6538ZM156.502 40.4135C155.914 38.8677 154.1 36.0178 150.404 36.0178C146.742 36.0178 143.693 38.8189 143.693 42.9302C143.693 46.8017 146.711 49.8405 150.756 49.8405C154.026 49.8405 155.914 47.9047 156.69 46.7774L154.263 45.2072C153.453 46.3569 152.35 47.1186 150.756 47.1186C149.172 47.1186 148.035 46.4138 147.307 45.0244L156.83 41.1996L156.502 40.4135ZM146.792 42.7149C146.711 40.0499 148.925 38.6849 150.511 38.6849C151.754 38.6849 152.809 39.2882 153.16 40.1514L146.792 42.7149ZM139.052 49.42H142.182V29.1075H139.052V49.42ZM133.925 37.5575H133.82C133.117 36.7491 131.776 36.0178 130.077 36.0178C126.511 36.0178 123.251 39.0566 123.251 42.9525C123.251 46.8261 126.511 49.8405 130.077 49.8405C131.776 49.8405 133.117 49.1031 133.82 48.2703H133.925V49.2616C133.925 51.9042 132.471 53.3241 130.125 53.3241C128.212 53.3241 127.026 51.9835 126.536 50.8561L123.814 51.9591C124.598 53.7913 126.676 56.046 130.125 56.046C133.795 56.046 136.892 53.9497 136.892 48.8492V36.4383H133.925V37.5575ZM130.345 47.1186C128.187 47.1186 126.381 45.3656 126.381 42.9525C126.381 40.5171 128.187 38.7397 130.345 38.7397C132.471 38.7397 134.147 40.5171 134.147 42.9525C134.147 45.3656 132.471 47.1186 130.345 47.1186ZM171.158 29.1075H163.671V49.42H166.793V41.7236H171.158C174.626 41.7236 178.026 39.2881 178.026 35.4146C178.026 31.543 174.617 29.1075 171.158 29.1075ZM171.24 38.8982H166.793V31.933H171.24C173.571 31.933 174.902 33.8119 174.902 35.4146C174.902 36.9867 173.571 38.8982 171.24 38.8982ZM190.54 35.9792C188.284 35.9792 185.938 36.9461 184.974 39.0891L187.744 40.2164C188.341 39.0891 189.437 38.7235 190.597 38.7235C192.216 38.7235 193.859 39.668 193.884 41.3357V41.5489C193.319 41.2321 192.109 40.7628 190.622 40.7628C187.638 40.7628 184.597 42.3574 184.597 45.3332C184.597 48.055 187.041 49.808 189.789 49.808C191.89 49.808 193.049 48.8878 193.777 47.8174H193.884V49.3875H196.899V41.5957C196.899 37.9942 194.129 35.9792 190.54 35.9792ZM190.163 47.1105C189.142 47.1105 187.719 46.6189 187.719 45.39C187.719 43.8178 189.494 43.2146 191.03 43.2146C192.405 43.2146 193.049 43.5091 193.884 43.8971C193.639 45.778 191.971 47.1105 190.163 47.1105ZM207.886 36.4241L204.297 45.2296H204.19L200.48 36.4241H197.113L202.688 48.7294L199.507 55.5767H202.769L211.359 36.4241H207.886ZM179.742 49.42H182.873V29.1075H179.742V49.42Z" fill="white"/>
<defs>
<linearGradient id="paint0_linear_3_119" x1="37.2216" y1="51.5167" x2="9.96224" y2="23.4342" gradientUnits="userSpaceOnUse">
<stop stop-color="#00A0FF"/>
<stop offset="0.0066" stop-color="#00A1FF"/>
<stop offset="0.2601" stop-color="#00BEFF"/>
<stop offset="0.5122" stop-color="#00D2FF"/>
<stop offset="0.7604" stop-color="#00DFFF"/>
<stop offset="1" stop-color="#00E3FF"/>
</linearGradient>
<linearGradient id="paint1_linear_3_119" x1="57.3685" y1="33.1677" x2="16.8611" y2="33.1677" gradientUnits="userSpaceOnUse">
<stop stop-color="#FFE000"/>
<stop offset="0.4087" stop-color="#FFBD00"/>
<stop offset="0.7754" stop-color="#FFA500"/>
<stop offset="1" stop-color="#FF9C00"/>
</linearGradient>
<linearGradient id="paint2_linear_3_119" x1="42.2895" y1="29.4388" x2="5.32363" y2="-8.64339" gradientUnits="userSpaceOnUse">
<stop stop-color="#FF3A44"/>
<stop offset="1" stop-color="#C31162"/>
</linearGradient>
<linearGradient id="paint3_linear_3_119" x1="12.9435" y1="65.3837" x2="29.4504" y2="48.3784" gradientUnits="userSpaceOnUse">
<stop stop-color="#32A071"/>
<stop offset="0.0685" stop-color="#2DA771"/>
<stop offset="0.4762" stop-color="#15CF74"/>
<stop offset="0.8009" stop-color="#06E775"/>
<stop offset="1" stop-color="#00F076"/>
</linearGradient>
</defs>
</svg>
